<?xml version="1.0" encoding="UTF-8" standalone="no"?>
<svg
   xmlns:dc="http://purl.org/dc/elements/1.1/"
   xmlns:cc="http://creativecommons.org/ns#"
   xmlns:rdf="http://www.w3.org/1999/02/22-rdf-syntax-ns#"
   xmlns:svg="http://www.w3.org/2000/svg"
   xmlns="http://www.w3.org/2000/svg"
   xmlns:xlink="http://www.w3.org/1999/xlink"
   xmlns:sodipodi="http://sodipodi.sourceforge.net/DTD/sodipodi-0.dtd"
   xmlns:inkscape="http://www.inkscape.org/namespaces/inkscape"
   fill-opacity="1"
   color-rendering="auto"
   color-interpolation="auto"
   stroke="black"
   text-rendering="auto"
   stroke-linecap="square"
   width="2.1770833333333335in"
   stroke-miterlimit="10"
   stroke-opacity="1"
   shape-rendering="auto"
   fill="black"
   stroke-dasharray="none"
   font-weight="normal"
   stroke-width="1"
   viewBox="0 0 209 238"
   height="2.4791666666666665in"
   font-family="'Arial'"
   font-style="normal"
   stroke-linejoin="miter"
   font-size="12"
   stroke-dashoffset="0"
   image-rendering="auto"
   id="svg3437"
   version="1.1"
   inkscape:version="0.48.4 r9939"
   sodipodi:docname="sed-mlClass.svg">
  <metadata
     id="metadata3525">
    <rdf:RDF>
      <cc:Work
         rdf:about="">
        <dc:format>image/svg+xml</dc:format>
        <dc:type
           rdf:resource="http://purl.org/dc/dcmitype/StillImage" />
      </cc:Work>
    </rdf:RDF>
  </metadata>
  <sodipodi:namedview
     pagecolor="#ffffff"
     bordercolor="#666666"
     borderopacity="1"
     objecttolerance="10"
     gridtolerance="10"
     guidetolerance="10"
     inkscape:pageopacity="0"
     inkscape:pageshadow="2"
     inkscape:window-width="906"
     inkscape:window-height="608"
     id="namedview3523"
     showgrid="false"
     inkscape:zoom="2.1154062"
     inkscape:cx="151.8976"
     inkscape:cy="69.629867"
     inkscape:window-x="850"
     inkscape:window-y="206"
     inkscape:window-maximized="0"
     inkscape:current-layer="svg3437" />
  <!--Generated by the Batik Graphics2D SVG Generator
 This is MagicDraw diagram.-->
  <defs
     id="genericDefs">
    <clipPath
       id="clipPath2"
       clipPathUnits="userSpaceOnUse">
      <path
         inkscape:connector-curvature="0"
         id="path5309"
         d="m 102,34 2271,0 0,1842 -2271,0 0,-1842 z" />
    </clipPath>
    <clipPath
       id="clipPath4275"
       clipPathUnits="userSpaceOnUse">
      <path
         inkscape:connector-curvature="0"
         id="path4277"
         d="m 102,34 2271,0 0,1842 -2271,0 0,-1842 z" />
    </clipPath>
    <clipPath
       id="clipPath4279"
       clipPathUnits="userSpaceOnUse">
      <path
         inkscape:connector-curvature="0"
         id="path4281"
         d="m 102,34 2271,0 0,1842 -2271,0 0,-1842 z" />
    </clipPath>
    <clipPath
       id="clipPath4283"
       clipPathUnits="userSpaceOnUse">
      <path
         inkscape:connector-curvature="0"
         id="path4285"
         d="m 102,34 2271,0 0,1842 -2271,0 0,-1842 z" />
    </clipPath>
    <clipPath
       id="clipPath4287"
       clipPathUnits="userSpaceOnUse">
      <path
         inkscape:connector-curvature="0"
         id="path4289"
         d="m 102,34 2271,0 0,1842 -2271,0 0,-1842 z" />
    </clipPath>
    <clipPath
       id="clipPath4291"
       clipPathUnits="userSpaceOnUse">
      <path
         inkscape:connector-curvature="0"
         id="path4293"
         d="m 102,34 2271,0 0,1842 -2271,0 0,-1842 z" />
    </clipPath>
    <clipPath
       id="clipPath4295"
       clipPathUnits="userSpaceOnUse">
      <path
         inkscape:connector-curvature="0"
         id="path4297"
         d="m 102,34 2271,0 0,1842 -2271,0 0,-1842 z" />
    </clipPath>
    <clipPath
       id="clipPath4299"
       clipPathUnits="userSpaceOnUse">
      <path
         inkscape:connector-curvature="0"
         id="path4301"
         d="m 102,34 2271,0 0,1842 -2271,0 0,-1842 z" />
    </clipPath>
    <clipPath
       id="clipPath4303"
       clipPathUnits="userSpaceOnUse">
      <path
         inkscape:connector-curvature="0"
         id="path4305"
         d="m 102,34 2271,0 0,1842 -2271,0 0,-1842 z" />
    </clipPath>
    <clipPath
       id="clipPath4307"
       clipPathUnits="userSpaceOnUse">
      <path
         inkscape:connector-curvature="0"
         id="path4309"
         d="m 102,34 2271,0 0,1842 -2271,0 0,-1842 z" />
    </clipPath>
    <clipPath
       id="clipPath4311"
       clipPathUnits="userSpaceOnUse">
      <path
         inkscape:connector-curvature="0"
         id="path4313"
         d="m 102,34 2271,0 0,1842 -2271,0 0,-1842 z" />
    </clipPath>
    <clipPath
       id="clipPath4315"
       clipPathUnits="userSpaceOnUse">
      <path
         inkscape:connector-curvature="0"
         id="path4317"
         d="m 102,34 2271,0 0,1842 -2271,0 0,-1842 z" />
    </clipPath>
    <clipPath
       id="clipPath4319"
       clipPathUnits="userSpaceOnUse">
      <path
         inkscape:connector-curvature="0"
         id="path4321"
         d="m 102,34 2271,0 0,1842 -2271,0 0,-1842 z" />
    </clipPath>
    <clipPath
       id="clipPath4323"
       clipPathUnits="userSpaceOnUse">
      <path
         inkscape:connector-curvature="0"
         id="path4325"
         d="m 102,34 2271,0 0,1842 -2271,0 0,-1842 z" />
    </clipPath>
    <clipPath
       id="clipPath4327"
       clipPathUnits="userSpaceOnUse">
      <path
         inkscape:connector-curvature="0"
         id="path4329"
         d="m 102,34 2271,0 0,1842 -2271,0 0,-1842 z" />
    </clipPath>
    <clipPath
       id="clipPath4331"
       clipPathUnits="userSpaceOnUse">
      <path
         inkscape:connector-curvature="0"
         id="path4333"
         d="m 102,34 2271,0 0,1842 -2271,0 0,-1842 z" />
    </clipPath>
    <clipPath
       id="clipPath4335"
       clipPathUnits="userSpaceOnUse">
      <path
         inkscape:connector-curvature="0"
         id="path4337"
         d="m 102,34 2271,0 0,1842 -2271,0 0,-1842 z" />
    </clipPath>
    <clipPath
       id="clipPath4339"
       clipPathUnits="userSpaceOnUse">
      <path
         inkscape:connector-curvature="0"
         id="path4341"
         d="m 102,34 2271,0 0,1842 -2271,0 0,-1842 z" />
    </clipPath>
    <clipPath
       id="clipPath4343"
       clipPathUnits="userSpaceOnUse">
      <path
         inkscape:connector-curvature="0"
         id="path4345"
         d="m 102,34 2271,0 0,1842 -2271,0 0,-1842 z" />
    </clipPath>
    <clipPath
       id="clipPath4347"
       clipPathUnits="userSpaceOnUse">
      <path
         inkscape:connector-curvature="0"
         id="path4349"
         d="m 102,34 2271,0 0,1842 -2271,0 0,-1842 z" />
    </clipPath>
    <clipPath
       id="clipPath4351"
       clipPathUnits="userSpaceOnUse">
      <path
         inkscape:connector-curvature="0"
         id="path4353"
         d="m 102,34 2271,0 0,1842 -2271,0 0,-1842 z" />
    </clipPath>
    <clipPath
       id="clipPath4355"
       clipPathUnits="userSpaceOnUse">
      <path
         inkscape:connector-curvature="0"
         id="path4357"
         d="m 102,34 2271,0 0,1842 -2271,0 0,-1842 z" />
    </clipPath>
    <clipPath
       id="clipPath4359"
       clipPathUnits="userSpaceOnUse">
      <path
         inkscape:connector-curvature="0"
         id="path4361"
         d="m 102,34 2271,0 0,1842 -2271,0 0,-1842 z" />
    </clipPath>
    <clipPath
       id="clipPath4363"
       clipPathUnits="userSpaceOnUse">
      <path
         inkscape:connector-curvature="0"
         id="path4365"
         d="m 102,34 2271,0 0,1842 -2271,0 0,-1842 z" />
    </clipPath>
    <clipPath
       id="clipPath4367"
       clipPathUnits="userSpaceOnUse">
      <path
         inkscape:connector-curvature="0"
         id="path4369"
         d="m 102,34 2271,0 0,1842 -2271,0 0,-1842 z" />
    </clipPath>
    <clipPath
       id="clipPath4371"
       clipPathUnits="userSpaceOnUse">
      <path
         inkscape:connector-curvature="0"
         id="path4373"
         d="m 102,34 2271,0 0,1842 -2271,0 0,-1842 z" />
    </clipPath>
    <clipPath
       id="clipPath4375"
       clipPathUnits="userSpaceOnUse">
      <path
         inkscape:connector-curvature="0"
         id="path4377"
         d="m 102,34 2271,0 0,1842 -2271,0 0,-1842 z" />
    </clipPath>
    <clipPath
       id="clipPath4379"
       clipPathUnits="userSpaceOnUse">
      <path
         inkscape:connector-curvature="0"
         id="path4381"
         d="m 102,34 2271,0 0,1842 -2271,0 0,-1842 z" />
    </clipPath>
    <clipPath
       id="clipPath4383"
       clipPathUnits="userSpaceOnUse">
      <path
         inkscape:connector-curvature="0"
         id="path4385"
         d="m 102,34 2271,0 0,1842 -2271,0 0,-1842 z" />
    </clipPath>
    <clipPath
       id="clipPath4387"
       clipPathUnits="userSpaceOnUse">
      <path
         inkscape:connector-curvature="0"
         id="path4389"
         d="m 102,34 2271,0 0,1842 -2271,0 0,-1842 z" />
    </clipPath>
    <clipPath
       id="clipPath4391"
       clipPathUnits="userSpaceOnUse">
      <path
         inkscape:connector-curvature="0"
         id="path4393"
         d="m 102,34 2271,0 0,1842 -2271,0 0,-1842 z" />
    </clipPath>
    <clipPath
       id="clipPath4395"
       clipPathUnits="userSpaceOnUse">
      <path
         inkscape:connector-curvature="0"
         id="path4397"
         d="m 102,34 2271,0 0,1842 -2271,0 0,-1842 z" />
    </clipPath>
    <linearGradient
       inkscape:collect="always"
       xlink:href="#linearGradient19"
       id="linearGradient8533"
       gradientUnits="userSpaceOnUse"
       spreadMethod="pad"
       x1="112"
       y1="597"
       x2="301"
       y2="681" />
    <linearGradient
       spreadMethod="pad"
       id="linearGradient19"
       y2="681"
       y1="597"
       x2="301"
       gradientUnits="userSpaceOnUse"
       x1="112">
      <stop
         id="stop5221"
         offset="0%"
         stop-color="rgb(255,204,153)"
         stop-opacity="1" />
      <stop
         id="stop5223"
         offset="100%"
         stop-color="rgb(255,255,218)"
         stop-opacity="1" />
    </linearGradient>
    <clipPath
       id="clipPath4403"
       clipPathUnits="userSpaceOnUse">
      <path
         inkscape:connector-curvature="0"
         id="path4405"
         d="m 102,34 2271,0 0,1842 -2271,0 0,-1842 z" />
    </clipPath>
    <clipPath
       id="clipPath4407"
       clipPathUnits="userSpaceOnUse">
      <path
         inkscape:connector-curvature="0"
         id="path4409"
         d="m 102,34 2271,0 0,1842 -2271,0 0,-1842 z" />
    </clipPath>
    <clipPath
       id="clipPath4411"
       clipPathUnits="userSpaceOnUse">
      <path
         inkscape:connector-curvature="0"
         id="path4413"
         d="m 102,34 2271,0 0,1842 -2271,0 0,-1842 z" />
    </clipPath>
    <clipPath
       id="clipPath4415"
       clipPathUnits="userSpaceOnUse">
      <path
         inkscape:connector-curvature="0"
         id="path4417"
         d="m 102,34 2271,0 0,1842 -2271,0 0,-1842 z" />
    </clipPath>
    <clipPath
       id="clipPath4419"
       clipPathUnits="userSpaceOnUse">
      <path
         inkscape:connector-curvature="0"
         id="path4421"
         d="m 102,34 2271,0 0,1842 -2271,0 0,-1842 z" />
    </clipPath>
    <clipPath
       id="clipPath4423"
       clipPathUnits="userSpaceOnUse">
      <path
         inkscape:connector-curvature="0"
         id="path4425"
         d="m 102,34 2271,0 0,1842 -2271,0 0,-1842 z" />
    </clipPath>
    <clipPath
       id="clipPath4427"
       clipPathUnits="userSpaceOnUse">
      <path
         inkscape:connector-curvature="0"
         id="path4429"
         d="m 102,34 2271,0 0,1842 -2271,0 0,-1842 z" />
    </clipPath>
    <clipPath
       id="clipPath4431"
       clipPathUnits="userSpaceOnUse">
      <path
         inkscape:connector-curvature="0"
         id="path4433"
         d="m 102,34 2271,0 0,1842 -2271,0 0,-1842 z" />
    </clipPath>
    <linearGradient
       inkscape:collect="always"
       xlink:href="#linearGradient7"
       id="linearGradient7195"
       gradientUnits="userSpaceOnUse"
       spreadMethod="pad"
       x1="112"
       y1="463"
       x2="301"
       y2="547" />
    <linearGradient
       spreadMethod="pad"
       id="linearGradient7"
       y2="547"
       y1="463"
       x2="301"
       gradientUnits="userSpaceOnUse"
       x1="112">
      <stop
         id="stop5161"
         offset="0%"
         stop-color="rgb(255,204,153)"
         stop-opacity="1" />
      <stop
         id="stop5163"
         offset="100%"
         stop-color="rgb(255,255,218)"
         stop-opacity="1" />
    </linearGradient>
    <clipPath
       id="clipPath4439"
       clipPathUnits="userSpaceOnUse">
      <path
         inkscape:connector-curvature="0"
         id="path4441"
         d="m 102,34 2271,0 0,1842 -2271,0 0,-1842 z" />
    </clipPath>
    <clipPath
       id="clipPath4443"
       clipPathUnits="userSpaceOnUse">
      <path
         inkscape:connector-curvature="0"
         id="path4445"
         d="m 102,34 2271,0 0,1842 -2271,0 0,-1842 z" />
    </clipPath>
    <linearGradient
       inkscape:collect="always"
       xlink:href="#linearGradient7"
       id="linearGradient4822"
       gradientUnits="userSpaceOnUse"
       spreadMethod="pad"
       x1="112"
       y1="463"
       x2="301"
       y2="547" />
    <linearGradient
       inkscape:collect="always"
       xlink:href="#linearGradient19"
       id="linearGradient4824"
       gradientUnits="userSpaceOnUse"
       spreadMethod="pad"
       x1="112"
       y1="597"
       x2="301"
       y2="681" />
    <linearGradient
       inkscape:collect="always"
       xlink:href="#linearGradient7"
       id="linearGradient4905"
       gradientUnits="userSpaceOnUse"
       spreadMethod="pad"
       x1="112"
       y1="463"
       x2="301"
       y2="547" />
    <linearGradient
       inkscape:collect="always"
       xlink:href="#linearGradient19"
       id="linearGradient4907"
       gradientUnits="userSpaceOnUse"
       spreadMethod="pad"
       x1="112"
       y1="597"
       x2="301"
       y2="681" />
  </defs>
  <g
     id="g4872"
     transform="translate(4.75,4.4000001e-6)">
    <rect
       transform="translate(-108,-456.98796)"
       style="fill:#b2b2b2;stroke:none"
       id="rect5467"
       height="84"
       width="189"
       clip-path="url(#clipPath2)"
       y="466"
       x="115" />
    <rect
       transform="translate(-108,-456.98796)"
       style="fill:url(#linearGradient4905);stroke:none"
       id="rect5469"
       height="84"
       width="189"
       clip-path="url(#clipPath2)"
       y="463"
       x="112" />
    <rect
       transform="translate(-108,-456.98796)"
       style="fill:none;stroke:#99795c;stroke-linecap:butt;stroke-linejoin:round"
       id="rect5471"
       clip-path="url(#clipPath2)"
       y="463"
       height="84"
       width="189"
       x="112" />
    <line
       transform="translate(-108,-456.98796)"
       style="fill:none;stroke:#99795c;stroke-linecap:butt;stroke-linejoin:round"
       id="line5473"
       y1="481"
       x2="301"
       clip-path="url(#clipPath2)"
       x1="112"
       y2="481" />
    <path
       transform="translate(-108,-456.98796)"
       style="fill:#000000;stroke:none"
       inkscape:connector-curvature="0"
       id="path5475"
       clip-path="url(#clipPath2)"
       d="m 117.75,493.2322 0,-2.1719 -2.1406,0 0,-0.8906 2.1406,0 0,-2.1563 0.9219,0 0,2.1563 2.1406,0 0,0.8906 -2.1406,0 0,2.1719 -0.9219,0 z" />
    <path
       transform="translate(-108,-456.98796)"
       style="fill:#404040;stroke:none"
       inkscape:connector-curvature="0"
       id="path5479"
       clip-path="url(#clipPath2)"
       d="m 157,489.8884 0,-1.0937 1.0938,0 0,1.0937 -1.0938,0 z m 0,4.6094 0,-1.0937 1.0938,0 0,1.0937 -1.0938,0 z m 5.0469,0 3.0469,-4.1094 -2.6876,-3.7656 1.25,0 1.4219,2.0156 q 0.4531,0.6407 0.6407,0.9688 0.25,-0.4219 0.6093,-0.8906 l 1.5938,-2.0938 1.125,0 -2.7657,3.7188 2.9844,4.1562 -1.2812,0 L 166,491.6853 q -0.1719,-0.2344 -0.3438,-0.5156 -0.2656,0.4219 -0.375,0.5781 l -1.9843,2.75 -1.25,0 z m 7.7656,0 0,-7.875 1.5781,0 1.8594,5.5781 q 0.25,0.7813 0.375,1.1563 0.1406,-0.4219 0.4219,-1.25 l 1.875,-5.4844 1.4062,0 0,7.875 -1,0 0,-6.5937 -2.2969,6.5937 -0.9374,0 -2.2657,-6.7031 0,6.7031 -1.0156,0 z m 8,0 0,-7.875 1.0313,0 0,6.9531 3.875,0 0,0.9219 -4.9063,0 z m 6.2187,0 0,-7.875 1.0313,0 0,7.875 -1.0313,0 z m 1.8126,0 0,-7.875 2.7187,0 q 0.9219,0 1.4063,0.1094 0.6718,0.1562 1.1562,0.5625 0.6094,0.5312 0.9219,1.3515 0.3125,0.8204 0.3125,1.8672 0,0.9063 -0.211,1.5938 -0.2109,0.6875 -0.539,1.1406 -0.3282,0.4531 -0.7188,0.7188 -0.3906,0.2656 -0.9375,0.3984 -0.5469,0.1328 -1.2656,0.1328 l -2.8437,0 z m 1.0468,-0.9219 1.6875,0 q 0.7657,0 1.211,-0.1484 0.4453,-0.1484 0.7109,-0.4141 0.375,-0.375 0.5781,-1 0.2031,-0.625 0.2031,-1.5156 0,-1.2344 -0.4062,-1.8984 -0.4062,-0.6641 -0.9844,-0.8828 -0.4218,-0.1563 -1.3437,-0.1563 l -1.6563,0 0,6.0156 z m 8.8594,3.1094 0,-10.0625 2.125,0 0,0.7969 -1.1562,0 0,8.4687 1.1562,0 0,0.7969 -2.125,0 z m 2.7031,-6.0781 q 0,-1.3906 0.2891,-2.2422 0.289,-0.8516 0.8594,-1.3125 0.5703,-0.4609 1.4296,-0.4609 0.625,0 1.1016,0.2578 0.4766,0.2578 0.7891,0.7343 0.3125,0.4766 0.4922,1.1719 0.1797,0.6953 0.1797,1.8516 0,1.3906 -0.2891,2.2422 -0.2891,0.8515 -0.8516,1.3203 -0.5625,0.4687 -1.4219,0.4687 -1.1406,0 -1.7968,-0.8281 -0.7813,-0.9844 -0.7813,-3.2031 z m 1,0 q 0,1.9531 0.4531,2.5937 0.4532,0.6407 1.125,0.6407 0.6563,0 1.1094,-0.6485 0.4532,-0.6484 0.4532,-2.5859 0,-1.9375 -0.4532,-2.5781 -0.4531,-0.6407 -1.125,-0.6407 -0.6718,0 -1.0625,0.5625 -0.5,0.7188 -0.5,2.6563 z m 5.5469,3.8906 0,-1.0937 1.0938,0 0,1.0937 -1.0938,0 z m 3,0 0,-1.0937 1.0938,0 0,1.0937 -1.0938,0 z m 6.0938,0 -0.9688,0 0,-6.1562 q -0.3438,0.3281 -0.9062,0.664 -0.5626,0.336 -1.0157,0.4922 l 0,-0.9375 q 0.8125,-0.375 1.4141,-0.9141 0.6016,-0.539 0.8516,-1.0546 l 0.625,0 0,7.9062 z m 4.25,2.1875 -2.1407,0 0,-0.7969 1.1719,0 0,-8.4687 -1.1719,0 0,-0.7969 2.1407,0 0,10.0625 z" />
    <line
       transform="translate(-108,-456.98796)"
       style="fill:none;stroke:#99795c;stroke-linecap:butt;stroke-linejoin:round"
       id="line5481"
       y1="502"
       x2="301"
       clip-path="url(#clipPath2)"
       x1="112"
       y2="502" />
    <path
       transform="translate(-108,-456.98796)"
       style="fill:#000000;stroke:none"
       inkscape:connector-curvature="0"
       id="path5483"
       clip-path="url(#clipPath2)"
       d="m 181.3906,473.9353 1.5469,-0.1562 q 0.1406,0.7812 0.5703,1.1484 0.4297,0.3672 1.1484,0.3672 0.7813,0 1.1641,-0.3281 0.3828,-0.3282 0.3828,-0.75 0,-0.2813 -0.164,-0.4766 -0.1641,-0.1953 -0.5703,-0.3516 -0.2813,-0.0937 -1.2657,-0.3437 -1.2812,-0.3125 -1.7969,-0.7813 -0.7187,-0.6406 -0.7187,-1.5781 0,-0.5937 0.3359,-1.1172 0.336,-0.5234 0.9766,-0.8047 0.6406,-0.2812 1.5625,-0.2812 1.4687,0 2.2187,0.6562 0.75,0.6563 0.7969,1.7344 l -1.5937,0.0781 q -0.1094,-0.6093 -0.4375,-0.875 -0.3281,-0.2656 -1,-0.2656 -0.7031,0 -1.0938,0.2813 -0.25,0.1875 -0.25,0.4843 0,0.2813 0.2344,0.4844 0.2969,0.25 1.4609,0.5234 1.1641,0.2735 1.7188,0.5625 0.5547,0.2891 0.8672,0.7969 0.3125,0.5078 0.3125,1.2578 0,0.6875 -0.375,1.2735 -0.375,0.5859 -1.0625,0.875 -0.6875,0.289 -1.7188,0.289 -1.4844,0 -2.289,-0.6875 -0.8047,-0.6875 -0.961,-2.0156 z m 7.4063,2.5625 0,-7.875 5.8437,0 0,1.3281 -4.25,0 0,1.75 3.9532,0 0,1.3282 -3.9532,0 0,2.1406 4.4063,0 0,1.3281 -6,0 z m 6,-7.875 2.9062,0 q 0.9844,0 1.5,0.1563 0.6875,0.2031 1.1797,0.7187 0.4922,0.5156 0.75,1.2734 0.2578,0.7579 0.2578,1.8672 0,0.9688 -0.2344,1.6719 -0.2968,0.8594 -0.8437,1.3906 -0.4219,0.4063 -1.125,0.625 -0.5156,0.1719 -1.4063,0.1719 l -2.9843,0 0,-7.875 z m 1.5937,1.3281 0,5.2188 1.1875,0 q 0.6563,0 0.9531,-0.0781 0.3907,-0.0938 0.6485,-0.3204 0.2578,-0.2265 0.4141,-0.7578 0.1562,-0.5312 0.1562,-1.4531 0,-0.9062 -0.1562,-1.3984 -0.1563,-0.4922 -0.4532,-0.7657 -0.2968,-0.2734 -0.7344,-0.3671 -0.3281,-0.0782 -1.3124,-0.0782 l -0.7032,0 z m 5.4219,-1.3281 3.1406,0 q 0.9375,0 1.3985,0.0781 0.4609,0.0782 0.8203,0.3282 0.3593,0.25 0.6015,0.6562 0.2422,0.4063 0.2422,0.9219 0,0.5469 -0.2968,1.0078 -0.2969,0.4609 -0.8126,0.6953 0.7188,0.2188 1.1094,0.7188 0.3906,0.5 0.3906,1.1875 0,0.5312 -0.25,1.039 -0.25,0.5078 -0.6874,0.8125 -0.4376,0.3047 -1.0626,0.3828 -0.4062,0.0313 -1.9218,0.0469 l -2.6719,0 0,-7.875 z m 1.5781,1.3125 0,1.8125 1.0469,0 q 0.9219,0 1.1563,-0.0156 0.4062,-0.0469 0.6406,-0.2813 0.2344,-0.2343 0.2344,-0.625 0,-0.3593 -0.2032,-0.5859 -0.2031,-0.2266 -0.5937,-0.2734 -0.2344,-0.0313 -1.3594,-0.0313 l -0.9219,0 z m 0,3.125 0,2.1094 1.4844,0 q 0.8594,0 1.0781,-0.0469 0.3594,-0.0625 0.586,-0.3125 0.2265,-0.25 0.2265,-0.6719 0,-0.3593 -0.1718,-0.6015 -0.1719,-0.2422 -0.5,-0.3594 -0.3282,-0.1172 -1.4219,-0.1172 l -1.2813,0 z m 6.5313,-0.5312 -1.375,-0.25 q 0.2343,-0.8125 0.7969,-1.211 0.5624,-0.3984 1.6718,-0.3984 1.0156,0 1.5078,0.2344 0.4922,0.2343 0.6954,0.6015 0.2031,0.3672 0.2031,1.3516 l -0.0157,1.7656 q 0,0.75 0.0704,1.1094 0.0703,0.3594 0.2734,0.7656 l -1.5,0 q -0.0625,-0.1562 -0.1406,-0.4531 -0.0313,-0.125 -0.0469,-0.1719 -0.3906,0.375 -0.8359,0.5625 -0.4454,0.1875 -0.9454,0.1875 -0.875,0 -1.3828,-0.4766 -0.5078,-0.4765 -0.5078,-1.2109 0,-0.4844 0.2344,-0.8594 0.2344,-0.375 0.6484,-0.5781 0.4141,-0.2031 1.1954,-0.3594 1.0624,-0.1875 1.4687,-0.3593 l 0,-0.1563 q 0,-0.4375 -0.2187,-0.6172 -0.2188,-0.1797 -0.8126,-0.1797 -0.3906,0 -0.6171,0.1563 -0.2266,0.1562 -0.3672,0.5469 z m 2.0156,1.2343 q -0.2969,0.0938 -0.9219,0.2266 -0.625,0.1328 -0.8125,0.2578 -0.2969,0.2188 -0.2969,0.5313 0,0.3281 0.2344,0.5546 0.2344,0.2266 0.5938,0.2266 0.4062,0 0.7812,-0.2656 0.2813,-0.2031 0.3594,-0.5 0.0625,-0.1875 0.0625,-0.7344 l 0,-0.2969 z m 2.3281,1.1094 1.5,-0.2344 q 0.1094,0.4375 0.3985,0.6641 0.289,0.2266 0.8203,0.2266 0.5937,0 0.8906,-0.2032 0.2031,-0.1562 0.2031,-0.4062 0,-0.1719 -0.1093,-0.2813 -0.125,-0.1093 -0.5157,-0.2031 -1.8125,-0.4062 -2.3125,-0.7344 -0.6718,-0.4687 -0.6718,-1.2812 0,-0.75 0.5859,-1.25 0.5859,-0.5 1.8203,-0.5 1.1719,0 1.7344,0.375 0.5625,0.375 0.7812,1.125 l -1.4218,0.2656 q -0.0938,-0.3281 -0.3438,-0.5078 -0.25,-0.1797 -0.7344,-0.1797 -0.5937,0 -0.8437,0.1719 -0.1719,0.1094 -0.1719,0.2969 0,0.1718 0.1406,0.2812 0.2032,0.1563 1.4141,0.4297 1.2109,0.2734 1.6797,0.6641 0.4844,0.4062 0.4844,1.125 0,0.7812 -0.6563,1.3437 -0.6563,0.5625 -1.9531,0.5625 -1.1563,0 -1.836,-0.4687 -0.6796,-0.4688 -0.8828,-1.2813 z m 10.8282,-0.1875 1.5,0.25 q -0.2813,0.8281 -0.9063,1.2578 -0.625,0.4297 -1.5781,0.4297 -1.4844,0 -2.2032,-0.9687 -0.5624,-0.7813 -0.5624,-1.9688 0,-1.4219 0.7421,-2.2187 0.7422,-0.7969 1.8829,-0.7969 1.2656,0 2,0.8359 0.7343,0.836 0.7031,2.5703 l -3.7813,0 q 0.0156,0.6719 0.3672,1.0469 0.3516,0.375 0.8672,0.375 0.3594,0 0.6016,-0.1953 0.2422,-0.1953 0.3672,-0.6172 z m 0.0781,-1.5312 q -0.0157,-0.6563 -0.336,-0.9922 -0.3203,-0.336 -0.7734,-0.336 -0.5,0 -0.8281,0.3594 -0.3125,0.3594 -0.3125,0.9688 l 2.25,0 z" />
    <rect
       transform="matrix(1,0,0,1.0651893,-108,-496.10153)"
       style="fill:#b2b2b2;stroke:none"
       id="rect5721"
       height="84"
       width="189"
       clip-path="url(#clipPath2)"
       y="600"
       x="115" />
    <rect
       transform="matrix(1,0,0,1.0651893,-108,-495.90597)"
       style="fill:url(#linearGradient4907);stroke:none"
       id="rect5723"
       height="84"
       width="189"
       clip-path="url(#clipPath2)"
       y="597"
       x="112" />
    <rect
       transform="matrix(0.9998173,0,0,1.0704469,-107.96227,-499.02747)"
       style="fill:none;stroke:#99795c;stroke-linecap:butt;stroke-linejoin:round"
       id="rect5725"
       clip-path="url(#clipPath2)"
       y="597"
       height="84"
       width="189"
       x="112" />
    <line
       transform="translate(-108,-456.98796)"
       style="fill:none;stroke:#99795c;stroke-linecap:butt;stroke-linejoin:round"
       id="line5727"
       y1="615"
       x2="301"
       clip-path="url(#clipPath2)"
       x1="112"
       y2="615" />
    <path
       transform="translate(-108,-456.98796)"
       style="fill:#000000;stroke:none"
       inkscape:connector-curvature="0"
       id="path5729"
       clip-path="url(#clipPath2)"
       d="m 117.75,627.2322 0,-2.1719 -2.1406,0 0,-0.8906 2.1406,0 0,-2.1563 0.9219,0 0,2.1563 2.1406,0 0,0.8906 -2.1406,0 0,2.1719 -0.9219,0 z" />
    <path
       transform="translate(-108,-456.98796)"
       style="fill:#280000;stroke:none"
       inkscape:connector-curvature="0"
       id="path5731"
       clip-path="url(#clipPath2)"
       d="m 121.0781,628.4978 2.0938,-2.9687 -1.9375,-2.7344 1.2031,0 0.8906,1.3437 q 0.2344,0.375 0.3907,0.625 0.2343,-0.3437 0.4374,-0.625 l 0.9532,-1.3437 1.1562,0 -1.9687,2.6875 2.125,3.0156 -1.1875,0 -1.1719,-1.7656 -0.3125,-0.4844 -1.5,2.25 -1.1719,0 z m 6.6407,0 0,-5.7031 0.875,0 0,0.7969 q 0.2656,-0.4219 0.7109,-0.6719 0.4453,-0.25 1.0078,-0.25 0.6406,0 1.0469,0.2578 0.4062,0.2578 0.5781,0.7422 0.6719,-1 1.75,-1 0.8594,0 1.3125,0.4687 0.4531,0.4688 0.4531,1.4375 l 0,3.9219 -0.9531,0 0,-3.5937 q 0,-0.5782 -0.0938,-0.836 -0.0937,-0.2578 -0.3437,-0.414 -0.25,-0.1563 -0.5781,-0.1563 -0.6094,0 -1.0078,0.4063 -0.3985,0.4062 -0.3985,1.2812 l 0,3.3125 -0.9687,0 0,-3.7031 q 0,-0.6406 -0.2344,-0.9688 -0.2344,-0.3281 -0.7656,-0.3281 -0.4063,0 -0.7578,0.2188 -0.3516,0.2187 -0.5078,0.6328 -0.1563,0.414 -0.1563,1.1953 l 0,2.9531 -0.9687,0 z m 7.9843,0 0,-7.875 0.9688,0 0,7.875 -0.9688,0 z m 2.0157,0 0,-5.7031 0.875,0 0,0.8125 q 0.625,-0.9375 1.8124,-0.9375 0.5157,0 0.9532,0.1797 0.4375,0.1797 0.6484,0.4843 0.211,0.3047 0.3047,0.711 0.0469,0.2812 0.0469,0.9531 l 0,3.5 -0.9688,0 0,-3.4687 q 0,-0.5938 -0.1094,-0.8829 -0.1093,-0.289 -0.3984,-0.4687 -0.289,-0.1797 -0.6797,-0.1797 -0.6093,0 -1.0625,0.3906 -0.4531,0.3907 -0.4531,1.5 l 0,3.1094 -0.9687,0 z m 5.625,-1.7031 0.9531,-0.1563 q 0.0781,0.5782 0.4453,0.8828 0.3672,0.3047 1.0234,0.3047 0.6719,0 0.9922,-0.2656 0.3203,-0.2656 0.3203,-0.6406 0,-0.3281 -0.2812,-0.5156 -0.2031,-0.125 -0.9844,-0.3282 -1.0625,-0.2656 -1.4766,-0.4609 -0.414,-0.1953 -0.625,-0.5391 -0.2109,-0.3437 -0.2109,-0.7656 0,-0.3906 0.1719,-0.7109 0.1719,-0.3203 0.4843,-0.5391 0.2188,-0.1719 0.6094,-0.2812 0.3906,-0.1094 0.8282,-0.1094 0.6718,0 1.1796,0.1875 0.5078,0.1875 0.75,0.5234 0.2422,0.336 0.336,0.8828 l -0.9375,0.125 q -0.0781,-0.4375 -0.3828,-0.6797 -0.3047,-0.2421 -0.8672,-0.2421 -0.6719,0 -0.9531,0.2187 -0.2813,0.2188 -0.2813,0.5156 0,0.1875 0.1094,0.3282 0.125,0.1562 0.375,0.2656 0.1406,0.0469 0.8593,0.25 1.0157,0.2656 1.4219,0.4375 0.4063,0.1719 0.6407,0.5078 0.2343,0.3359 0.2343,0.8359 0,0.4844 -0.2812,0.9063 -0.2813,0.4219 -0.8125,0.6562 -0.5313,0.2344 -1.2032,0.2344 -1.1093,0 -1.6953,-0.4609 -0.5859,-0.461 -0.7421,-1.3672 z" />
    <path
       transform="translate(-108,-456.98796)"
       style="fill:#404040;stroke:none"
       inkscape:connector-curvature="0"
       id="path5733"
       clip-path="url(#clipPath2)"
       d="m 153,623.8884 0,-1.0937 1.0938,0 0,1.0937 -1.0938,0 z m 0,4.6094 0,-1.0937 1.0938,0 0,1.0937 -1.0938,0 z m 5.5,-2.5312 0.9844,-0.0782 q 0.0625,0.5782 0.3203,0.961 0.2578,0.3828 0.7891,0.6172 0.5312,0.2343 1.2031,0.2343 0.6093,0 1.0625,-0.1797 0.4531,-0.1796 0.6797,-0.4843 0.2265,-0.3047 0.2265,-0.6797 0,-0.375 -0.2187,-0.6485 -0.2188,-0.2734 -0.7188,-0.4609 -0.3125,-0.125 -1.3984,-0.3828 -1.0859,-0.2578 -1.5235,-0.4922 -0.5624,-0.2969 -0.8359,-0.7344 -0.2734,-0.4375 -0.2734,-0.9843 0,-0.5938 0.3359,-1.1094 0.336,-0.5156 0.9844,-0.7891 0.6484,-0.2734 1.4453,-0.2734 0.875,0 1.5469,0.289 0.6718,0.2891 1.0312,0.836 0.3594,0.5469 0.3906,1.2344 l -1,0.0781 q -0.0781,-0.75 -0.5468,-1.1328 -0.4688,-0.3828 -1.375,-0.3828 -0.9375,0 -1.375,0.3515 -0.4375,0.3516 -0.4375,0.836 0,0.4218 0.3125,0.7031 0.2968,0.2656 1.5703,0.5547 1.2734,0.289 1.7422,0.5078 0.6875,0.3125 1.0156,0.7969 0.3281,0.4843 0.3281,1.125 0,0.625 -0.3594,1.1796 -0.3593,0.5547 -1.039,0.8672 -0.6797,0.3125 -1.5234,0.3125 -1.0626,0 -1.7813,-0.3125 -0.7187,-0.3125 -1.1328,-0.9375 -0.4141,-0.625 -0.4297,-1.4218 z m 9.3438,1.6718 0.125,0.8438 q -0.4063,0.0937 -0.7188,0.0937 -0.5312,0 -0.8203,-0.1718 -0.2891,-0.1719 -0.4063,-0.4375 -0.1172,-0.2657 -0.1172,-1.1407 l 0,-3.2812 -0.7187,0 0,-0.75 0.7187,0 0,-1.4063 0.9532,-0.5937 0,2 0.9844,0 0,0.75 -0.9844,0 0,3.3437 q 0,0.4063 0.0547,0.5235 0.0547,0.1172 0.1718,0.1875 0.1172,0.0703 0.3203,0.0703 0.1719,0 0.4376,-0.0313 z m 0.875,0.8594 0,-5.7031 0.8593,0 0,0.8594 q 0.3438,-0.6094 0.625,-0.7969 0.2813,-0.1875 0.6094,-0.1875 0.5,0 1,0.3125 l -0.3281,0.8906 q -0.3594,-0.2031 -0.7188,-0.2031 -0.3125,0 -0.5625,0.1875 -0.25,0.1875 -0.3593,0.5312 -0.1563,0.5157 -0.1563,1.125 l 0,2.9844 -0.9687,0 z m 4.0156,-6.7656 0,-1.1094 0.9687,0 0,1.1094 -0.9687,0 z m 0,6.7656 0,-5.7031 0.9687,0 0,5.7031 -0.9687,0 z m 1.9844,0 0,-5.7031 0.875,0 0,0.8125 q 0.625,-0.9375 1.8124,-0.9375 0.5157,0 0.9532,0.1797 0.4375,0.1797 0.6484,0.4843 0.211,0.3047 0.3047,0.711 0.0469,0.2812 0.0469,0.9531 l 0,3.5 -0.9688,0 0,-3.4687 q 0,-0.5938 -0.1094,-0.8829 -0.1093,-0.289 -0.3984,-0.4687 -0.289,-0.1797 -0.6797,-0.1797 -0.6093,0 -1.0625,0.3906 -0.4531,0.3907 -0.4531,1.5 l 0,3.1094 -0.9687,0 z m 5.8281,0.4688 0.9375,0.1406 q 0.0625,0.4375 0.3281,0.6406 0.3594,0.2656 0.9844,0.2656 0.6719,0 1.039,-0.2656 0.3672,-0.2656 0.4922,-0.75 0.0781,-0.2969 0.0781,-1.25 -0.6406,0.75 -1.5937,0.75 -1.1719,0 -1.8125,-0.8516 -0.6406,-0.8515 -0.6406,-2.039 0,-0.8125 0.2968,-1.5 0.2969,-0.6875 0.8516,-1.0625 0.5547,-0.375 1.3203,-0.375 1,0 1.6563,0.8125 l 0,-0.6875 0.8906,0 0,4.9219 q 0,1.3437 -0.2656,1.8984 -0.2656,0.5547 -0.8594,0.875 -0.5938,0.3203 -1.4531,0.3203 -1.0157,0 -1.6407,-0.4609 -0.625,-0.461 -0.6093,-1.3828 z m 0.7969,-3.4219 q 0,1.125 0.4453,1.6406 0.4453,0.5156 1.1171,0.5156 0.6719,0 1.125,-0.5156 0.4532,-0.5156 0.4532,-1.6094 0,-1.0468 -0.4688,-1.5781 -0.4687,-0.5312 -1.125,-0.5312 -0.6406,0 -1.0937,0.5234 -0.4531,0.5234 -0.4531,1.5547 z" />
    <path
       transform="translate(-108,-445.79807)"
       style="fill:#000000;stroke:none"
       inkscape:connector-curvature="0"
       id="path5737"
       clip-path="url(#clipPath2)"
       d="m 117.75,639.2322 0,-2.1719 -2.1406,0 0,-0.8906 2.1406,0 0,-2.1563 0.9219,0 0,2.1563 2.1406,0 0,0.8906 -2.1406,0 0,2.1719 -0.9219,0 z" />
    <path
       transform="translate(-108,-445.79807)"
       style="fill:#280000;stroke:none"
       inkscape:connector-curvature="0"
       id="path5739"
       clip-path="url(#clipPath2)"
       d="m 121.7031,640.4978 0,-7.875 0.9688,0 0,7.875 -0.9688,0 z m 5.9219,-1.8437 1,0.125 q -0.2344,0.875 -0.875,1.3593 -0.6406,0.4844 -1.625,0.4844 -1.25,0 -1.9844,-0.7656 -0.7344,-0.7656 -0.7344,-2.1563 0,-1.4531 0.7422,-2.2422 0.7422,-0.789 1.9141,-0.789 1.1563,0 1.875,0.7734 0.7187,0.7735 0.7187,2.1953 0,0.0782 0,0.25 l -4.25,0 q 0.0469,0.9375 0.5235,1.4375 0.4765,0.5 1.1953,0.5 0.5312,0 0.9062,-0.2734 0.375,-0.2734 0.5938,-0.8984 z m -3.1719,-1.5625 3.1875,0 q -0.0625,-0.7188 -0.3594,-1.0782 -0.4687,-0.5468 -1.2031,-0.5468 -0.6719,0 -1.125,0.4453 -0.4531,0.4453 -0.5,1.1797 z m 6.8594,3.4062 -2.1719,-5.7031 1.0156,0 1.2344,3.4219 q 0.1875,0.5468 0.3594,1.1406 0.125,-0.4531 0.3594,-1.0781 l 1.2656,-3.4844 1,0 -2.1562,5.7031 -0.9063,0 z m 8.3125,-1.8437 1,0.125 q -0.2344,0.875 -0.875,1.3593 -0.6406,0.4844 -1.625,0.4844 -1.25,0 -1.9844,-0.7656 -0.7344,-0.7656 -0.7344,-2.1563 0,-1.4531 0.7422,-2.2422 0.7422,-0.789 1.9141,-0.789 1.1563,0 1.875,0.7734 0.7187,0.7735 0.7187,2.1953 0,0.0782 0,0.25 l -4.25,0 q 0.0469,0.9375 0.5235,1.4375 0.4765,0.5 1.1953,0.5 0.5312,0 0.9062,-0.2734 0.375,-0.2734 0.5938,-0.8984 z m -3.1719,-1.5625 3.1875,0 q -0.0625,-0.7188 -0.3594,-1.0782 -0.4687,-0.5468 -1.2031,-0.5468 -0.6719,0 -1.125,0.4453 -0.4531,0.4453 -0.5,1.1797 z m 5.25,3.4062 0,-7.875 0.9688,0 0,7.875 -0.9688,0 z" />
    <path
       transform="translate(-108,-445.79807)"
       style="fill:#404040;stroke:none"
       inkscape:connector-curvature="0"
       id="path5741"
       clip-path="url(#clipPath2)"
       d="m 147,635.8884 0,-1.0937 1.0938,0 0,1.0937 -1.0938,0 z m 0,4.6094 0,-1.0937 1.0938,0 0,1.0937 -1.0938,0 z m 9.4219,0 0,-0.7187 q -0.5313,0.8437 -1.5938,0.8437 -0.6719,0 -1.25,-0.375 -0.5781,-0.375 -0.8906,-1.0469 -0.3125,-0.6718 -0.3125,-1.5468 0,-0.8594 0.2891,-1.5547 0.289,-0.6953 0.8515,-1.0625 0.5625,-0.3672 1.2656,-0.3672 0.5157,0 0.9219,0.2187 0.4063,0.2188 0.6563,0.5625 l 0,-2.8281 0.9687,0 0,7.875 -0.9062,0 z m -3.0469,-2.8437 q 0,1.0937 0.4609,1.6328 0.461,0.539 1.086,0.539 0.6406,0 1.0781,-0.5156 0.4375,-0.5156 0.4375,-1.5781 0,-1.1719 -0.4453,-1.7188 -0.4453,-0.5468 -1.1172,-0.5468 -0.6406,0 -1.0703,0.5234 -0.4297,0.5234 -0.4297,1.6641 z m 9.25,1 1,0.125 q -0.2344,0.875 -0.875,1.3593 -0.6406,0.4844 -1.625,0.4844 -1.25,0 -1.9844,-0.7656 -0.7344,-0.7656 -0.7344,-2.1563 0,-1.4531 0.7422,-2.2422 0.7422,-0.789 1.9141,-0.789 1.1563,0 1.875,0.7734 0.7187,0.7735 0.7187,2.1953 0,0.0782 0,0.25 l -4.25,0 q 0.0469,0.9375 0.5235,1.4375 0.4765,0.5 1.1953,0.5 0.5312,0 0.9062,-0.2734 0.375,-0.2734 0.5938,-0.8984 z m -3.1719,-1.5625 3.1875,0 q -0.0625,-0.7188 -0.3594,-1.0782 -0.4687,-0.5468 -1.2031,-0.5468 -0.6719,0 -1.125,0.4453 -0.4531,0.4453 -0.5,1.1797 z m 9,1.3125 0.9375,0.125 q -0.1406,0.9843 -0.789,1.539 -0.6485,0.5547 -1.5704,0.5547 -1.1718,0 -1.8828,-0.7656 -0.7109,-0.7656 -0.7109,-2.1875 0,-0.9219 0.3047,-1.6172 0.3047,-0.6953 0.9297,-1.0391 0.625,-0.3437 1.3593,-0.3437 0.9219,0 1.5157,0.4687 0.5937,0.4688 0.7656,1.3282 l -0.9531,0.1406 q -0.125,-0.5625 -0.4688,-0.8516 -0.3437,-0.289 -0.8281,-0.289 -0.7187,0 -1.1797,0.5234 -0.4609,0.5234 -0.4609,1.6484 0,1.1563 0.4375,1.6719 0.4375,0.5156 1.1562,0.5156 0.5625,0 0.9453,-0.3437 0.3829,-0.3438 0.4922,-1.0781 z m 2.2813,-4.6719 0,-1.1094 0.9687,0 0,1.1094 -0.9687,0 z m 0,6.7656 0,-5.7031 0.9687,0 0,5.7031 -0.9687,0 z m 1.9844,0 0,-5.7031 0.875,0 0,0.7969 q 0.2656,-0.4219 0.7109,-0.6719 0.4453,-0.25 1.0078,-0.25 0.6406,0 1.0469,0.2578 0.4062,0.2578 0.5781,0.7422 0.6719,-1 1.75,-1 0.8594,0 1.3125,0.4687 0.4531,0.4688 0.4531,1.4375 l 0,3.9219 -0.9531,0 0,-3.5937 q 0,-0.5782 -0.0938,-0.836 -0.0937,-0.2578 -0.3437,-0.414 -0.25,-0.1563 -0.5781,-0.1563 -0.6094,0 -1.0078,0.4063 -0.3985,0.4062 -0.3985,1.2812 l 0,3.3125 -0.9687,0 0,-3.7031 q 0,-0.6406 -0.2344,-0.9688 -0.2344,-0.3281 -0.7656,-0.3281 -0.4063,0 -0.7578,0.2188 -0.3516,0.2187 -0.5078,0.6328 -0.1563,0.414 -0.1563,1.1953 l 0,2.9531 -0.9687,0 z m 11.7343,-0.7031 q -0.5469,0.4531 -1.039,0.6406 -0.4922,0.1875 -1.0703,0.1875 -0.9376,0 -1.4454,-0.4609 -0.5078,-0.461 -0.5078,-1.1641 0,-0.4219 0.1953,-0.7656 0.1953,-0.3438 0.5,-0.5547 0.3047,-0.2109 0.6953,-0.3203 0.2813,-0.0781 0.8594,-0.1406 1.1719,-0.1407 1.7188,-0.3438 0.0156,-0.1875 0.0156,-0.25 0,-0.5937 -0.2812,-0.8281 -0.3594,-0.3281 -1.0938,-0.3281 -0.6875,0 -1.0078,0.2343 -0.3203,0.2344 -0.4766,0.8438 l -0.9531,-0.125 q 0.125,-0.6094 0.4219,-0.9844 0.2968,-0.375 0.8594,-0.5703 0.5624,-0.1953 1.2968,-0.1953 0.7344,0 1.1875,0.1719 0.4531,0.1718 0.6641,0.4296 0.2109,0.2579 0.3047,0.6485 0.0469,0.25 0.0469,0.9062 l 0,1.2813 q 0,1.3437 0.0624,1.7031 0.0626,0.3594 0.25,0.6875 l -1.0156,0 q -0.1562,-0.2969 -0.1875,-0.7031 z m -0.0937,-2.1563 q -0.5156,0.2188 -1.5782,0.3594 -0.5937,0.0938 -0.8359,0.1953 -0.2422,0.1016 -0.3828,0.3125 -0.1406,0.211 -0.1406,0.461 0,0.3906 0.2969,0.6484 0.2968,0.2578 0.8593,0.2578 0.5625,0 0.9922,-0.25 0.4297,-0.25 0.6485,-0.6719 0.1406,-0.3281 0.1406,-0.9687 l 0,-0.3438 z m 2.3437,2.8594 0,-7.875 0.9688,0 0,7.875 -0.9688,0 z" />
    <path
       transform="translate(-108,-445.79807)"
       style="fill:#804000;stroke:none"
       inkscape:connector-curvature="0"
       id="path5743"
       clip-path="url(#clipPath2)"
       d="m 196.8125,635.8728 -5.2031,0 0,-0.9062 5.2031,0 0,0.9062 z m 0,2.3906 -5.2031,0 0,-0.9062 5.2031,0 0,0.9062 z m 7.2813,2.2344 -0.9688,0 0,-6.1562 q -0.3438,0.3281 -0.9062,0.664 -0.5626,0.336 -1.0157,0.4922 l 0,-0.9375 q 0.8125,-0.375 1.4141,-0.9141 0.6016,-0.539 0.8516,-1.0546 l 0.625,0 0,7.9062 z" />
    <path
       transform="translate(-108,-445.79807)"
       style="fill:#000000;stroke:none"
       inkscape:connector-curvature="0"
       id="path5745"
       clip-path="url(#clipPath2)"
       d="m 117.75,651.2322 0,-2.1719 -2.1406,0 0,-0.8906 2.1406,0 0,-2.1563 0.9219,0 0,2.1563 2.1406,0 0,0.8906 -2.1406,0 0,2.1719 -0.9219,0 z" />
    <path
       transform="translate(-108,-445.79807)"
       style="fill:#280000;stroke:none"
       inkscape:connector-curvature="0"
       id="path5747"
       clip-path="url(#clipPath2)"
       d="m 123.3125,652.4978 -2.1719,-5.7031 1.0156,0 1.2344,3.4219 q 0.1875,0.5468 0.3594,1.1406 0.125,-0.4531 0.3594,-1.0781 l 1.2656,-3.4844 1,0 -2.1562,5.7031 -0.9063,0 z m 8.3125,-1.8437 1,0.125 q -0.2344,0.875 -0.875,1.3593 -0.6406,0.4844 -1.625,0.4844 -1.25,0 -1.9844,-0.7656 -0.7344,-0.7656 -0.7344,-2.1563 0,-1.4531 0.7422,-2.2422 0.7422,-0.789 1.9141,-0.789 1.1563,0 1.875,0.7734 0.7187,0.7735 0.7187,2.1953 0,0.0782 0,0.25 l -4.25,0 q 0.0469,0.9375 0.5235,1.4375 0.4765,0.5 1.1953,0.5 0.5312,0 0.9062,-0.2734 0.375,-0.2734 0.5938,-0.8984 z m -3.1719,-1.5625 3.1875,0 q -0.0625,-0.7188 -0.3594,-1.0782 -0.4687,-0.5468 -1.2031,-0.5468 -0.6719,0 -1.125,0.4453 -0.4531,0.4453 -0.5,1.1797 z m 5.2657,3.4062 0,-5.7031 0.8593,0 0,0.8594 q 0.3438,-0.6094 0.625,-0.7969 0.2813,-0.1875 0.6094,-0.1875 0.5,0 1,0.3125 l -0.3281,0.8906 q -0.3594,-0.2031 -0.7188,-0.2031 -0.3125,0 -0.5625,0.1875 -0.25,0.1875 -0.3593,0.5312 -0.1563,0.5157 -0.1563,1.125 l 0,2.9844 -0.9687,0 z m 3.625,-1.7031 0.9531,-0.1563 q 0.0781,0.5782 0.4453,0.8828 0.3672,0.3047 1.0234,0.3047 0.6719,0 0.9922,-0.2656 0.3203,-0.2656 0.3203,-0.6406 0,-0.3281 -0.2812,-0.5156 -0.2031,-0.125 -0.9844,-0.3282 -1.0625,-0.2656 -1.4766,-0.4609 -0.414,-0.1953 -0.625,-0.5391 -0.2109,-0.3437 -0.2109,-0.7656 0,-0.3906 0.1719,-0.7109 0.1719,-0.3203 0.4843,-0.5391 0.2188,-0.1719 0.6094,-0.2812 0.3906,-0.1094 0.8282,-0.1094 0.6718,0 1.1796,0.1875 0.5078,0.1875 0.75,0.5234 0.2422,0.336 0.336,0.8828 l -0.9375,0.125 q -0.0781,-0.4375 -0.3828,-0.6797 -0.3047,-0.2421 -0.8672,-0.2421 -0.6719,0 -0.9531,0.2187 -0.2813,0.2188 -0.2813,0.5156 0,0.1875 0.1094,0.3282 0.125,0.1562 0.375,0.2656 0.1406,0.0469 0.8593,0.25 1.0157,0.2656 1.4219,0.4375 0.4063,0.1719 0.6407,0.5078 0.2343,0.3359 0.2343,0.8359 0,0.4844 -0.2812,0.9063 -0.2813,0.4219 -0.8125,0.6562 -0.5313,0.2344 -1.2032,0.2344 -1.1093,0 -1.6953,-0.4609 -0.5859,-0.461 -0.7421,-1.3672 z m 6.3906,-5.0625 0,-1.1094 0.9687,0 0,1.1094 -0.9687,0 z m 0,6.7656 0,-5.7031 0.9687,0 0,5.7031 -0.9687,0 z m 1.625,-2.8594 q 0,-1.5781 0.8906,-2.3437 0.7344,-0.625 1.7969,-0.625 1.1719,0 1.914,0.7656 0.7422,0.7656 0.7422,2.125 0,1.1094 -0.3281,1.7422 -0.3281,0.6328 -0.9609,0.9766 -0.6329,0.3437 -1.3672,0.3437 -1.2031,0 -1.9453,-0.7656 -0.7422,-0.7656 -0.7422,-2.2188 z m 1,0 q 0,1.1094 0.4765,1.6485 0.4766,0.539 1.211,0.539 0.7187,0 1.1953,-0.5468 0.4766,-0.5469 0.4766,-1.6719 0,-1.0469 -0.4844,-1.5938 -0.4844,-0.5468 -1.1875,-0.5468 -0.7344,0 -1.211,0.539 -0.4765,0.5391 -0.4765,1.6328 z m 5.3594,2.8594 0,-5.7031 0.875,0 0,0.8125 q 0.625,-0.9375 1.8124,-0.9375 0.5157,0 0.9532,0.1797 0.4375,0.1797 0.6484,0.4843 0.211,0.3047 0.3047,0.711 0.0469,0.2812 0.0469,0.9531 l 0,3.5 -0.9688,0 0,-3.4687 q 0,-0.5938 -0.1094,-0.8829 -0.1093,-0.289 -0.3984,-0.4687 -0.289,-0.1797 -0.6797,-0.1797 -0.6093,0 -1.0625,0.3906 -0.4531,0.3907 -0.4531,1.5 l 0,3.1094 -0.9687,0 z" />
    <path
       transform="translate(-108,-445.79807)"
       style="fill:#404040;stroke:none"
       inkscape:connector-curvature="0"
       id="path5749"
       clip-path="url(#clipPath2)"
       d="m 161,647.8884 0,-1.0937 1.0938,0 0,1.0937 -1.0938,0 z m 0,4.6094 0,-1.0937 1.0938,0 0,1.0937 -1.0938,0 z m 9.4219,0 0,-0.7187 q -0.5313,0.8437 -1.5938,0.8437 -0.6719,0 -1.25,-0.375 -0.5781,-0.375 -0.8906,-1.0469 -0.3125,-0.6718 -0.3125,-1.5468 0,-0.8594 0.2891,-1.5547 0.289,-0.6953 0.8515,-1.0625 0.5625,-0.3672 1.2656,-0.3672 0.5157,0 0.9219,0.2187 0.4063,0.2188 0.6563,0.5625 l 0,-2.8281 0.9687,0 0,7.875 -0.9062,0 z m -3.0469,-2.8437 q 0,1.0937 0.4609,1.6328 0.461,0.539 1.086,0.539 0.6406,0 1.0781,-0.5156 0.4375,-0.5156 0.4375,-1.5781 0,-1.1719 -0.4453,-1.7188 -0.4453,-0.5468 -1.1172,-0.5468 -0.6406,0 -1.0703,0.5234 -0.4297,0.5234 -0.4297,1.6641 z m 9.25,1 1,0.125 q -0.2344,0.875 -0.875,1.3593 -0.6406,0.4844 -1.625,0.4844 -1.25,0 -1.9844,-0.7656 -0.7344,-0.7656 -0.7344,-2.1563 0,-1.4531 0.7422,-2.2422 0.7422,-0.789 1.9141,-0.789 1.1563,0 1.875,0.7734 0.7187,0.7735 0.7187,2.1953 0,0.0782 0,0.25 l -4.25,0 q 0.0469,0.9375 0.5235,1.4375 0.4765,0.5 1.1953,0.5 0.5312,0 0.9062,-0.2734 0.375,-0.2734 0.5938,-0.8984 z m -3.1719,-1.5625 3.1875,0 q -0.0625,-0.7188 -0.3594,-1.0782 -0.4687,-0.5468 -1.2031,-0.5468 -0.6719,0 -1.125,0.4453 -0.4531,0.4453 -0.5,1.1797 z m 9,1.3125 0.9375,0.125 q -0.1406,0.9843 -0.789,1.539 -0.6485,0.5547 -1.5704,0.5547 -1.1718,0 -1.8828,-0.7656 -0.7109,-0.7656 -0.7109,-2.1875 0,-0.9219 0.3047,-1.6172 0.3047,-0.6953 0.9297,-1.0391 0.625,-0.3437 1.3593,-0.3437 0.9219,0 1.5157,0.4687 0.5937,0.4688 0.7656,1.3282 l -0.9531,0.1406 q -0.125,-0.5625 -0.4688,-0.8516 -0.3437,-0.289 -0.8281,-0.289 -0.7187,0 -1.1797,0.5234 -0.4609,0.5234 -0.4609,1.6484 0,1.1563 0.4375,1.6719 0.4375,0.5156 1.1562,0.5156 0.5625,0 0.9453,-0.3437 0.3829,-0.3438 0.4922,-1.0781 z m 2.2813,-4.6719 0,-1.1094 0.9687,0 0,1.1094 -0.9687,0 z m 0,6.7656 0,-5.7031 0.9687,0 0,5.7031 -0.9687,0 z m 1.9844,0 0,-5.7031 0.875,0 0,0.7969 q 0.2656,-0.4219 0.7109,-0.6719 0.4453,-0.25 1.0078,-0.25 0.6406,0 1.0469,0.2578 0.4062,0.2578 0.5781,0.7422 0.6719,-1 1.75,-1 0.8594,0 1.3125,0.4687 0.4531,0.4688 0.4531,1.4375 l 0,3.9219 -0.9531,0 0,-3.5937 q 0,-0.5782 -0.0938,-0.836 -0.0937,-0.2578 -0.3437,-0.414 -0.25,-0.1563 -0.5781,-0.1563 -0.6094,0 -1.0078,0.4063 -0.3985,0.4062 -0.3985,1.2812 l 0,3.3125 -0.9687,0 0,-3.7031 q 0,-0.6406 -0.2344,-0.9688 -0.2344,-0.3281 -0.7656,-0.3281 -0.4063,0 -0.7578,0.2188 -0.3516,0.2187 -0.5078,0.6328 -0.1563,0.414 -0.1563,1.1953 l 0,2.9531 -0.9687,0 z m 11.7343,-0.7031 q -0.5469,0.4531 -1.039,0.6406 -0.4922,0.1875 -1.0703,0.1875 -0.9376,0 -1.4454,-0.4609 -0.5078,-0.461 -0.5078,-1.1641 0,-0.4219 0.1953,-0.7656 0.1953,-0.3438 0.5,-0.5547 0.3047,-0.2109 0.6953,-0.3203 0.2813,-0.0781 0.8594,-0.1406 1.1719,-0.1407 1.7188,-0.3438 0.0156,-0.1875 0.0156,-0.25 0,-0.5937 -0.2812,-0.8281 -0.3594,-0.3281 -1.0938,-0.3281 -0.6875,0 -1.0078,0.2343 -0.3203,0.2344 -0.4766,0.8438 l -0.9531,-0.125 q 0.125,-0.6094 0.4219,-0.9844 0.2968,-0.375 0.8594,-0.5703 0.5624,-0.1953 1.2968,-0.1953 0.7344,0 1.1875,0.1719 0.4531,0.1718 0.6641,0.4296 0.2109,0.2579 0.3047,0.6485 0.0469,0.25 0.0469,0.9062 l 0,1.2813 q 0,1.3437 0.0624,1.7031 0.0626,0.3594 0.25,0.6875 l -1.0156,0 q -0.1562,-0.2969 -0.1875,-0.7031 z m -0.0937,-2.1563 q -0.5156,0.2188 -1.5782,0.3594 -0.5937,0.0938 -0.8359,0.1953 -0.2422,0.1016 -0.3828,0.3125 -0.1406,0.211 -0.1406,0.461 0,0.3906 0.2969,0.6484 0.2968,0.2578 0.8593,0.2578 0.5625,0 0.9922,-0.25 0.4297,-0.25 0.6485,-0.6719 0.1406,-0.3281 0.1406,-0.9687 l 0,-0.3438 z m 2.3437,2.8594 0,-7.875 0.9688,0 0,7.875 -0.9688,0 z" />
    <path
       transform="translate(-108,-445.79807)"
       style="fill:#804000;stroke:none"
       inkscape:connector-curvature="0"
       id="path5751"
       clip-path="url(#clipPath2)"
       d="m 210.8125,647.8728 -5.2031,0 0,-0.9062 5.2031,0 0,0.9062 z m 0,2.3906 -5.2031,0 0,-0.9062 5.2031,0 0,0.9062 z m 8.7187,1.3125 0,0.9219 -5.2031,0 q 0,-0.3437 0.125,-0.6719 0.1875,-0.5312 0.625,-1.0468 0.4375,-0.5157 1.2657,-1.1875 1.2812,-1.0625 1.7343,-1.6719 0.4531,-0.6094 0.4531,-1.1563 0,-0.5781 -0.4062,-0.9765 -0.4062,-0.3985 -1.0781,-0.3985 -0.6875,0 -1.1094,0.4219 -0.4219,0.4219 -0.4219,1.1563 l -1,-0.0938 q 0.1094,-1.1094 0.7735,-1.6953 0.664,-0.5859 1.789,-0.5859 1.125,0 1.7891,0.625 0.664,0.625 0.664,1.5625 0,0.4687 -0.1953,0.9296 -0.1953,0.461 -0.6406,0.961 -0.4453,0.5 -1.4922,1.3906 -0.875,0.7188 -1.1172,0.9844 -0.2421,0.2656 -0.414,0.5312 l 3.8593,0 z" />
    <line
       transform="translate(-108,-446.51232)"
       style="fill:none;stroke:#99795c;stroke-linecap:butt;stroke-linejoin:round"
       id="line5753"
       y1="660"
       x2="301"
       clip-path="url(#clipPath2)"
       x1="112"
       y2="660" />
    <path
       transform="translate(-108,-456.98796)"
       style="fill:#000000;stroke:none"
       inkscape:connector-curvature="0"
       id="path5755"
       clip-path="url(#clipPath2)"
       d="m 186.3906,607.9353 1.5469,-0.1562 q 0.1406,0.7812 0.5703,1.1484 0.4297,0.3672 1.1484,0.3672 0.7813,0 1.1641,-0.3281 0.3828,-0.3282 0.3828,-0.75 0,-0.2813 -0.164,-0.4766 -0.1641,-0.1953 -0.5703,-0.3516 -0.2813,-0.0937 -1.2657,-0.3437 -1.2812,-0.3125 -1.7969,-0.7813 -0.7187,-0.6406 -0.7187,-1.5781 0,-0.5937 0.3359,-1.1172 0.336,-0.5234 0.9766,-0.8047 0.6406,-0.2812 1.5625,-0.2812 1.4687,0 2.2187,0.6562 0.75,0.6563 0.7969,1.7344 l -1.5937,0.0781 q -0.1094,-0.6093 -0.4375,-0.875 -0.3281,-0.2656 -1,-0.2656 -0.7031,0 -1.0938,0.2813 -0.25,0.1875 -0.25,0.4843 0,0.2813 0.2344,0.4844 0.2969,0.25 1.4609,0.5234 1.1641,0.2735 1.7188,0.5625 0.5547,0.2891 0.8672,0.7969 0.3125,0.5078 0.3125,1.2578 0,0.6875 -0.375,1.2735 -0.375,0.5859 -1.0625,0.875 -0.6875,0.289 -1.7188,0.289 -1.4844,0 -2.289,-0.6875 -0.8047,-0.6875 -0.961,-2.0156 z m 7.4063,2.5625 0,-7.875 5.8437,0 0,1.3281 -4.25,0 0,1.75 3.9532,0 0,1.3282 -3.9532,0 0,2.1406 4.4063,0 0,1.3281 -6,0 z m 6,-7.875 2.9062,0 q 0.9844,0 1.5,0.1563 0.6875,0.2031 1.1797,0.7187 0.4922,0.5156 0.75,1.2734 0.2578,0.7579 0.2578,1.8672 0,0.9688 -0.2344,1.6719 -0.2968,0.8594 -0.8437,1.3906 -0.4219,0.4063 -1.125,0.625 -0.5156,0.1719 -1.4063,0.1719 l -2.9843,0 0,-7.875 z m 1.5937,1.3281 0,5.2188 1.1875,0 q 0.6563,0 0.9531,-0.0781 0.3907,-0.0938 0.6485,-0.3204 0.2578,-0.2265 0.4141,-0.7578 0.1562,-0.5312 0.1562,-1.4531 0,-0.9062 -0.1562,-1.3984 -0.1563,-0.4922 -0.4532,-0.7657 -0.2968,-0.2734 -0.7344,-0.3671 -0.3281,-0.0782 -1.3124,-0.0782 l -0.7032,0 z m 5.2344,4.4532 0,-1.5157 2.9531,0 0,1.5157 -2.9531,0 z m 4.1562,2.0937 0,-7.875 2.375,0 1.4376,5.375 1.4062,-5.375 2.3906,0 0,7.875 -1.4844,0 0,-6.2031 -1.5624,6.2031 -1.5313,0 -1.5625,-6.2031 0,6.2031 -1.4688,0 z m 10.0626,0 0,-7.8125 1.5937,0 0,6.4844 3.9531,0 0,1.3281 -5.5468,0 z" />
    <polygon
       transform="translate(-108,-456.98796)"
       style="fill:none;stroke:#424242;stroke-linecap:butt;stroke-linejoin:round"
       id="polygon6463"
       points="203,554 211,554 207,547 "
       clip-path="url(#clipPath2)" />
    <path
       transform="translate(-108,-456.98796)"
       style="fill:none;stroke:#424242;stroke-linecap:butt;stroke-linejoin:round"
       inkscape:connector-curvature="0"
       id="path6465"
       clip-path="url(#clipPath2)"
       d="m 207,554 0,43" />
    <text
       sodipodi:linespacing="125%"
       id="text8535"
       y="182.45645"
       x="11.618109"
       style="font-size:14.9333334px;font-style:normal;font-weight:normal;line-height:125%;letter-spacing:0px;word-spacing:0px;fill:#000000;fill-opacity:1;stroke:none;font-family:Sans"
       xml:space="preserve"><tspan
         style="font-size:9.60000038px"
         y="182.45645"
         x="11.618109"
         id="tspan8537"
         sodipodi:role="line">= http://sed-ml.org/sed-ml/level1/version2</tspan></text>
    <text
       sodipodi:linespacing="125%"
       id="text8539"
       y="37.925804"
       x="13.217505"
       style="font-size:14.9333334px;font-style:normal;font-weight:normal;line-height:125%;letter-spacing:0px;word-spacing:0px;fill:#000000;fill-opacity:1;stroke:none;font-family:Sans"
       xml:space="preserve"><tspan
         style="font-size:11.73333359px"
         y="37.925804"
         x="13.217505"
         id="tspan8541"
         sodipodi:role="line">metaid</tspan></text>
  </g>
</svg>
