<?xml version="1.0" encoding="UTF-8" standalone="no"?>
<svg
   xmlns:dc="http://purl.org/dc/elements/1.1/"
   xmlns:cc="http://creativecommons.org/ns#"
   xmlns:rdf="http://www.w3.org/1999/02/22-rdf-syntax-ns#"
   xmlns:svg="http://www.w3.org/2000/svg"
   xmlns="http://www.w3.org/2000/svg"
   xmlns:xlink="http://www.w3.org/1999/xlink"
   xmlns:sodipodi="http://sodipodi.sourceforge.net/DTD/sodipodi-0.dtd"
   xmlns:inkscape="http://www.inkscape.org/namespaces/inkscape"
   fill-opacity="1"
   color-rendering="auto"
   color-interpolation="auto"
   stroke="black"
   text-rendering="auto"
   stroke-linecap="square"
   width="7.177083333333333in"
   stroke-miterlimit="10"
   stroke-opacity="1"
   shape-rendering="auto"
   fill="black"
   stroke-dasharray="none"
   font-weight="normal"
   stroke-width="1"
   viewBox="0 0 689 194"
   height="2.0208333333333335in"
   font-family="'Arial'"
   font-style="normal"
   stroke-linejoin="miter"
   font-size="12"
   stroke-dashoffset="0"
   image-rendering="auto"
   id="svg3107"
   version="1.1"
   inkscape:version="0.48.4 r9939"
   sodipodi:docname="sedBaseClass.svg">
  <metadata
     id="metadata3227">
    <rdf:RDF>
      <cc:Work
         rdf:about="">
        <dc:format>image/svg+xml</dc:format>
        <dc:type
           rdf:resource="http://purl.org/dc/dcmitype/StillImage" />
      </cc:Work>
    </rdf:RDF>
  </metadata>
  <sodipodi:namedview
     pagecolor="#ffffff"
     bordercolor="#666666"
     borderopacity="1"
     objecttolerance="10"
     gridtolerance="10"
     guidetolerance="10"
     inkscape:pageopacity="0"
     inkscape:pageshadow="2"
     inkscape:window-width="944"
     inkscape:window-height="1001"
     id="namedview3225"
     showgrid="false"
     inkscape:zoom="1.8763425"
     inkscape:cx="183.61441"
     inkscape:cy="61.14589"
     inkscape:window-x="960"
     inkscape:window-y="0"
     inkscape:window-maximized="0"
     inkscape:current-layer="svg3107" />
  <!--Generated by the Batik Graphics2D SVG Generator
 This is MagicDraw diagram.-->
  <defs
     id="genericDefs">
    <defs
       id="defs1">
      <linearGradient
         spreadMethod="pad"
         id="linearGradient1"
         y2="167"
         y1="119"
         x2="760"
         gradientUnits="userSpaceOnUse"
         x1="462">
        <stop
           id="stop3114"
           offset="0%"
           stop-color="rgb(255,204,153)"
           stop-opacity="1" />
        <stop
           id="stop3116"
           offset="100%"
           stop-color="rgb(255,255,218)"
           stop-opacity="1" />
      </linearGradient>
      <linearGradient
         spreadMethod="pad"
         id="linearGradient2"
         y2="244"
         y1="196"
         x2="760"
         gradientUnits="userSpaceOnUse"
         x1="462">
        <stop
           id="stop3119"
           offset="0%"
           stop-color="rgb(255,204,153)"
           stop-opacity="1" />
        <stop
           id="stop3121"
           offset="100%"
           stop-color="rgb(255,255,218)"
           stop-opacity="1" />
      </linearGradient>
      <linearGradient
         spreadMethod="pad"
         id="linearGradient3"
         y2="209"
         y1="161"
         x2="389"
         gradientUnits="userSpaceOnUse"
         x1="91">
        <stop
           id="stop3124"
           offset="0%"
           stop-color="rgb(255,204,153)"
           stop-opacity="1" />
        <stop
           id="stop3126"
           offset="100%"
           stop-color="rgb(255,255,218)"
           stop-opacity="1" />
      </linearGradient>
      <linearGradient
         spreadMethod="pad"
         id="linearGradient4"
         y2="115"
         y1="70"
         x2="303"
         gradientUnits="userSpaceOnUse"
         x1="203">
        <stop
           id="stop3129"
           offset="0%"
           stop-color="rgb(255,240,180)"
           stop-opacity="1" />
        <stop
           id="stop3131"
           offset="100%"
           stop-color="white"
           stop-opacity="1" />
      </linearGradient>
      <clipPath
         id="clipPath1"
         clipPathUnits="userSpaceOnUse">
        <path
           id="path3134"
           d="M0 -5 L770 -5 L770 254 L0 254 L0 -5 Z" />
      </clipPath>
      <clipPath
         id="clipPath2"
         clipPathUnits="userSpaceOnUse">
        <path
           id="path3137"
           d="M81 55 L851 55 L851 314 L81 314 L81 55 Z" />
      </clipPath>
    </defs>
    <linearGradient
       inkscape:collect="always"
       xlink:href="#linearGradient2"
       id="linearGradient3295"
       gradientUnits="userSpaceOnUse"
       spreadMethod="pad"
       x1="462"
       y1="196"
       x2="760"
       y2="244" />
    <linearGradient
       inkscape:collect="always"
       xlink:href="#linearGradient3"
       id="linearGradient3297"
       gradientUnits="userSpaceOnUse"
       spreadMethod="pad"
       x1="91"
       y1="161"
       x2="389"
       y2="209" />
    <linearGradient
       inkscape:collect="always"
       xlink:href="#linearGradient4"
       id="linearGradient3299"
       gradientUnits="userSpaceOnUse"
       spreadMethod="pad"
       x1="203"
       y1="70"
       x2="303"
       y2="115" />
    <linearGradient
       inkscape:collect="always"
       xlink:href="#linearGradient4"
       id="linearGradient3301"
       gradientUnits="userSpaceOnUse"
       spreadMethod="pad"
       x1="203"
       y1="70"
       x2="303"
       y2="115" />
    <linearGradient
       inkscape:collect="always"
       xlink:href="#linearGradient4"
       id="linearGradient3303"
       gradientUnits="userSpaceOnUse"
       spreadMethod="pad"
       x1="203"
       y1="70"
       x2="303"
       y2="115" />
  </defs>
  <g
     style="fill:#ffffff;stroke:#ffffff"
     id="g3139">
    <rect
       style="stroke:none"
       id="rect3141"
       clip-path="url(#clipPath1)"
       y="5"
       height="609"
       width="1104"
       x="5" />
    <rect
       style="fill:#b2b2b2;stroke:none"
       id="rect3143"
       height="48"
       text-rendering="geometricPrecision"
       width="298"
       clip-path="url(#clipPath2)"
       transform="translate(-81,-60)"
       y="122"
       x="465" />
    <rect
       style="fill:url(#linearGradient1);stroke:none"
       id="rect3145"
       height="48"
       text-rendering="geometricPrecision"
       width="298"
       clip-path="url(#clipPath2)"
       transform="translate(-81,-60)"
       y="119"
       x="462" />
  </g>
  <rect
     x="462"
     width="298"
     height="48"
     y="119"
     clip-path="url(#clipPath2)"
     id="rect3149"
     style="fill:none;stroke:#99795c;stroke-linecap:butt;stroke-linejoin:round"
     transform="translate(-81,-60)" />
  <line
     y2="137"
     x1="462"
     clip-path="url(#clipPath2)"
     x2="760"
     y1="137"
     id="line3151"
     style="fill:none;stroke:#99795c;stroke-linecap:butt;stroke-linejoin:round"
     transform="translate(-81,-60)" />
  <path
     d="m 467.75,149.2322 0,-2.1719 -2.1406,0 0,-0.8906 2.1406,0 0,-2.1563 0.9219,0 0,2.1563 2.1406,0 0,0.8906 -2.1406,0 0,2.1719 -0.9219,0 z"
     clip-path="url(#clipPath2)"
     id="path3153"
     inkscape:connector-curvature="0"
     style="fill:#000000;stroke:none"
     transform="translate(-81,-60)" />
  <path
     d="m 475.4531,149.7947 q -0.5469,0.4531 -1.039,0.6406 -0.4922,0.1875 -1.0703,0.1875 -0.9376,0 -1.4454,-0.4609 -0.5078,-0.461 -0.5078,-1.1641 0,-0.4219 0.1953,-0.7656 0.1953,-0.3438 0.5,-0.5547 0.3047,-0.2109 0.6953,-0.3203 0.2813,-0.0781 0.8594,-0.1406 1.1719,-0.1407 1.7188,-0.3438 0.0156,-0.1875 0.0156,-0.25 0,-0.5937 -0.2812,-0.8281 -0.3594,-0.3281 -1.0938,-0.3281 -0.6875,0 -1.0078,0.2343 -0.3203,0.2344 -0.4766,0.8438 l -0.9531,-0.125 q 0.125,-0.6094 0.4219,-0.9844 0.2968,-0.375 0.8594,-0.5703 0.5624,-0.1953 1.2968,-0.1953 0.7344,0 1.1875,0.1719 0.4531,0.1718 0.6641,0.4296 0.2109,0.2579 0.3047,0.6485 0.0469,0.25 0.0469,0.9062 l 0,1.2813 q 0,1.3437 0.0624,1.7031 0.0626,0.3594 0.25,0.6875 l -1.0156,0 q -0.1562,-0.2969 -0.1875,-0.7031 z m -0.0937,-2.1563 q -0.5156,0.2188 -1.5782,0.3594 -0.5937,0.0938 -0.8359,0.1953 -0.2422,0.1016 -0.3828,0.3125 -0.1406,0.211 -0.1406,0.461 0,0.3906 0.2969,0.6484 0.2968,0.2578 0.8593,0.2578 0.5625,0 0.9922,-0.25 0.4297,-0.25 0.6485,-0.6719 0.1406,-0.3281 0.1406,-0.9687 l 0,-0.3438 z m 2.3594,2.8594 0,-5.7031 0.875,0 0,0.8125 q 0.625,-0.9375 1.8124,-0.9375 0.5157,0 0.9532,0.1797 0.4375,0.1797 0.6484,0.4843 0.211,0.3047 0.3047,0.711 0.0469,0.2812 0.0469,0.9531 l 0,3.5 -0.9688,0 0,-3.4687 q 0,-0.5938 -0.1094,-0.8829 -0.1093,-0.289 -0.3984,-0.4687 -0.289,-0.1797 -0.6797,-0.1797 -0.6093,0 -1.0625,0.3906 -0.4531,0.3907 -0.4531,1.5 l 0,3.1094 -0.9687,0 z m 5.9687,2.2031 -0.1094,-0.9062 q 0.3125,0.0781 0.5469,0.0781 0.3281,0 0.5234,-0.1094 0.1954,-0.1093 0.3047,-0.2968 0.0938,-0.1407 0.2969,-0.7188 0.0312,-0.0781 0.0938,-0.2344 l -2.1719,-5.7187 1.0469,0 1.1874,3.2969 q 0.2344,0.6406 0.4063,1.3281 0.1719,-0.6719 0.4063,-1.2969 l 1.2187,-3.3281 0.9687,0 -2.1718,5.7969 q -0.3438,0.9375 -0.5469,1.2968 -0.25,0.4844 -0.5859,0.7032 -0.336,0.2187 -0.7891,0.2187 -0.2813,0 -0.625,-0.1094 z m 6.1563,-2.2031 0,-7.875 1.0624,0 4.1407,6.1875 0,-6.1875 1,0 0,7.875 -1.0781,0 -4.125,-6.1875 0,6.1875 -1,0 z m 6.5156,-2.8594 q 0,-1.5781 0.8906,-2.3437 0.7344,-0.625 1.7969,-0.625 1.1719,0 1.914,0.7656 0.7422,0.7656 0.7422,2.125 0,1.1094 -0.3281,1.7422 -0.3281,0.6328 -0.9609,0.9766 -0.6329,0.3437 -1.3672,0.3437 -1.2031,0 -1.9453,-0.7656 -0.7422,-0.7656 -0.7422,-2.2188 z m 1,0 q 0,1.1094 0.4765,1.6485 0.4766,0.539 1.211,0.539 0.7187,0 1.1953,-0.5468 0.4766,-0.5469 0.4766,-1.6719 0,-1.0469 -0.4844,-1.5938 -0.4844,-0.5468 -1.1875,-0.5468 -0.7344,0 -1.211,0.539 -0.4765,0.5391 -0.4765,1.6328 z m 7.4844,2 0.125,0.8438 q -0.4063,0.0937 -0.7188,0.0937 -0.5312,0 -0.8203,-0.1718 -0.2891,-0.1719 -0.4063,-0.4375 -0.1172,-0.2657 -0.1172,-1.1407 l 0,-3.2812 -0.7187,0 0,-0.75 0.7187,0 0,-1.4063 0.9532,-0.5937 0,2 0.9844,0 0,0.75 -0.9844,0 0,3.3437 q 0,0.4063 0.0547,0.5235 0.0547,0.1172 0.1718,0.1875 0.1172,0.0703 0.3203,0.0703 0.1719,0 0.4376,-0.0313 z m 4.7812,-0.9843 1,0.125 q -0.2344,0.875 -0.875,1.3593 -0.6406,0.4844 -1.625,0.4844 -1.25,0 -1.9844,-0.7656 -0.7344,-0.7656 -0.7344,-2.1563 0,-1.4531 0.7422,-2.2422 0.7422,-0.789 1.9141,-0.789 1.1563,0 1.875,0.7734 0.7187,0.7735 0.7187,2.1953 0,0.0782 0,0.25 l -4.25,0 q 0.0469,0.9375 0.5235,1.4375 0.4765,0.5 1.1953,0.5 0.5312,0 0.9062,-0.2734 0.375,-0.2734 0.5938,-0.8984 z m -3.1719,-1.5625 3.1875,0 q -0.0625,-0.7188 -0.3594,-1.0782 -0.4687,-0.5468 -1.2031,-0.5468 -0.6719,0 -1.125,0.4453 -0.4531,0.4453 -0.5,1.1797 z"
     clip-path="url(#clipPath2)"
     id="path3155"
     inkscape:connector-curvature="0"
     style="fill:#280000;stroke:none"
     transform="translate(-81,-60)" />
  <path
     d="m 515,145.8884 0,-1.0937 1.0938,0 0,1.0937 -1.0938,0 z m 0,4.6094 0,-1.0937 1.0938,0 0,1.0937 -1.0938,0 z m 5.5,-2.5312 0.9844,-0.0782 q 0.0625,0.5782 0.3203,0.961 0.2578,0.3828 0.7891,0.6172 0.5312,0.2343 1.2031,0.2343 0.6093,0 1.0625,-0.1797 0.4531,-0.1796 0.6797,-0.4843 0.2265,-0.3047 0.2265,-0.6797 0,-0.375 -0.2187,-0.6485 -0.2188,-0.2734 -0.7188,-0.4609 -0.3125,-0.125 -1.3984,-0.3828 -1.0859,-0.2578 -1.5235,-0.4922 -0.5624,-0.2969 -0.8359,-0.7344 -0.2734,-0.4375 -0.2734,-0.9843 0,-0.5938 0.3359,-1.1094 0.336,-0.5156 0.9844,-0.7891 0.6484,-0.2734 1.4453,-0.2734 0.875,0 1.5469,0.289 0.6718,0.2891 1.0312,0.836 0.3594,0.5469 0.3906,1.2344 l -1,0.0781 q -0.0781,-0.75 -0.5468,-1.1328 -0.4688,-0.3828 -1.375,-0.3828 -0.9375,0 -1.375,0.3515 -0.4375,0.3516 -0.4375,0.836 0,0.4218 0.3125,0.7031 0.2968,0.2656 1.5703,0.5547 1.2734,0.289 1.7422,0.5078 0.6875,0.3125 1.0156,0.7969 0.3281,0.4843 0.3281,1.125 0,0.625 -0.3594,1.1796 -0.3593,0.5547 -1.039,0.8672 -0.6797,0.3125 -1.5234,0.3125 -1.0626,0 -1.7813,-0.3125 -0.7187,-0.3125 -1.1328,-0.9375 -0.4141,-0.625 -0.4297,-1.4218 z m 9.3438,1.6718 0.125,0.8438 q -0.4063,0.0937 -0.7188,0.0937 -0.5312,0 -0.8203,-0.1718 -0.2891,-0.1719 -0.4063,-0.4375 -0.1172,-0.2657 -0.1172,-1.1407 l 0,-3.2812 -0.7187,0 0,-0.75 0.7187,0 0,-1.4063 0.9532,-0.5937 0,2 0.9844,0 0,0.75 -0.9844,0 0,3.3437 q 0,0.4063 0.0547,0.5235 0.0547,0.1172 0.1718,0.1875 0.1172,0.0703 0.3203,0.0703 0.1719,0 0.4376,-0.0313 z m 0.875,0.8594 0,-5.7031 0.8593,0 0,0.8594 q 0.3438,-0.6094 0.625,-0.7969 0.2813,-0.1875 0.6094,-0.1875 0.5,0 1,0.3125 l -0.3281,0.8906 q -0.3594,-0.2031 -0.7188,-0.2031 -0.3125,0 -0.5625,0.1875 -0.25,0.1875 -0.3593,0.5312 -0.1563,0.5157 -0.1563,1.125 l 0,2.9844 -0.9687,0 z m 4.0156,-6.7656 0,-1.1094 0.9687,0 0,1.1094 -0.9687,0 z m 0,6.7656 0,-5.7031 0.9687,0 0,5.7031 -0.9687,0 z m 1.9844,0 0,-5.7031 0.875,0 0,0.8125 q 0.625,-0.9375 1.8124,-0.9375 0.5157,0 0.9532,0.1797 0.4375,0.1797 0.6484,0.4843 0.211,0.3047 0.3047,0.711 0.0469,0.2812 0.0469,0.9531 l 0,3.5 -0.9688,0 0,-3.4687 q 0,-0.5938 -0.1094,-0.8829 -0.1093,-0.289 -0.3984,-0.4687 -0.289,-0.1797 -0.6797,-0.1797 -0.6093,0 -1.0625,0.3906 -0.4531,0.3907 -0.4531,1.5 l 0,3.1094 -0.9687,0 z m 5.8281,0.4688 0.9375,0.1406 q 0.0625,0.4375 0.3281,0.6406 0.3594,0.2656 0.9844,0.2656 0.6719,0 1.039,-0.2656 0.3672,-0.2656 0.4922,-0.75 0.0781,-0.2969 0.0781,-1.25 -0.6406,0.75 -1.5937,0.75 -1.1719,0 -1.8125,-0.8516 -0.6406,-0.8515 -0.6406,-2.039 0,-0.8125 0.2968,-1.5 0.2969,-0.6875 0.8516,-1.0625 0.5547,-0.375 1.3203,-0.375 1,0 1.6563,0.8125 l 0,-0.6875 0.8906,0 0,4.9219 q 0,1.3437 -0.2656,1.8984 -0.2656,0.5547 -0.8594,0.875 -0.5938,0.3203 -1.4531,0.3203 -1.0157,0 -1.6407,-0.4609 -0.625,-0.461 -0.6093,-1.3828 z m 0.7969,-3.4219 q 0,1.125 0.4453,1.6406 0.4453,0.5156 1.1171,0.5156 0.6719,0 1.125,-0.5156 0.4532,-0.5156 0.4532,-1.6094 0,-1.0468 -0.4688,-1.5781 -0.4687,-0.5312 -1.125,-0.5312 -0.6406,0 -1.0937,0.5234 -0.4531,0.5234 -0.4531,1.5547 z m 8.4062,5.1406 0,-10.0625 2.125,0 0,0.7969 -1.1562,0 0,8.4687 1.1562,0 0,0.7969 -2.125,0 z m 2.7031,-6.0781 q 0,-1.3906 0.2891,-2.2422 0.289,-0.8516 0.8594,-1.3125 0.5703,-0.4609 1.4296,-0.4609 0.625,0 1.1016,0.2578 0.4766,0.2578 0.7891,0.7343 0.3125,0.4766 0.4922,1.1719 0.1797,0.6953 0.1797,1.8516 0,1.3906 -0.2891,2.2422 -0.2891,0.8515 -0.8516,1.3203 -0.5625,0.4687 -1.4219,0.4687 -1.1406,0 -1.7968,-0.8281 -0.7813,-0.9844 -0.7813,-3.2031 z m 1,0 q 0,1.9531 0.4531,2.5937 0.4532,0.6407 1.125,0.6407 0.6563,0 1.1094,-0.6485 0.4532,-0.6484 0.4532,-2.5859 0,-1.9375 -0.4532,-2.5781 -0.4531,-0.6407 -1.125,-0.6407 -0.6718,0 -1.0625,0.5625 -0.5,0.7188 -0.5,2.6563 z m 5.5469,3.8906 0,-1.0937 1.0938,0 0,1.0937 -1.0938,0 z m 3,0 0,-1.0937 1.0938,0 0,1.0937 -1.0938,0 z m 6.0938,0 -0.9688,0 0,-6.1562 q -0.3438,0.3281 -0.9062,0.664 -0.5626,0.336 -1.0157,0.4922 l 0,-0.9375 q 0.8125,-0.375 1.4141,-0.9141 0.6016,-0.539 0.8516,-1.0546 l 0.625,0 0,7.9062 z m 4.25,2.1875 -2.1407,0 0,-0.7969 1.1719,0 0,-8.4687 -1.1719,0 0,-0.7969 2.1407,0 0,10.0625 z"
     clip-path="url(#clipPath2)"
     id="path3157"
     inkscape:connector-curvature="0"
     style="fill:#404040;stroke:none"
     transform="translate(-81,-60)" />
  <path
     d="m 583.8125,145.8728 -5.2031,0 0,-0.9062 5.2031,0 0,0.9062 z m 0,2.3906 -5.2031,0 0,-0.9062 5.2031,0 0,0.9062 z m 3.9063,2.2344 0,-7.875 0.9687,0 0,2.8281 q 0.6875,-0.7812 1.7187,-0.7812 0.625,0 1.0938,0.25 0.4688,0.25 0.6719,0.6875 0.2031,0.4375 0.2031,1.2812 l 0,3.6094 -0.9688,0 0,-3.6094 q 0,-0.7343 -0.3124,-1.0625 -0.3126,-0.3281 -0.8907,-0.3281 -0.4375,0 -0.8125,0.2188 -0.375,0.2187 -0.539,0.6015 -0.1641,0.3828 -0.1641,1.0547 l 0,3.125 -0.9687,0 z m 8.125,-0.8594 0.125,0.8438 q -0.4063,0.0937 -0.7188,0.0937 -0.5312,0 -0.8203,-0.1718 -0.2891,-0.1719 -0.4063,-0.4375 -0.1172,-0.2657 -0.1172,-1.1407 l 0,-3.2812 -0.7187,0 0,-0.75 0.7187,0 0,-1.4063 0.9532,-0.5937 0,2 0.9844,0 0,0.75 -0.9844,0 0,3.3437 q 0,0.4063 0.0547,0.5235 0.0547,0.1172 0.1718,0.1875 0.1172,0.0703 0.3203,0.0703 0.1719,0 0.4376,-0.0313 z m 3,0 0.125,0.8438 q -0.4063,0.0937 -0.7188,0.0937 -0.5312,0 -0.8203,-0.1718 -0.2891,-0.1719 -0.4063,-0.4375 -0.1172,-0.2657 -0.1172,-1.1407 l 0,-3.2812 -0.7187,0 0,-0.75 0.7187,0 0,-1.4063 0.9532,-0.5937 0,2 0.9844,0 0,0.75 -0.9844,0 0,3.3437 q 0,0.4063 0.0547,0.5235 0.0547,0.1172 0.1718,0.1875 0.1172,0.0703 0.3203,0.0703 0.1719,0 0.4376,-0.0313 z m 0.875,3.0469 0,-7.8906 0.8906,0 0,0.7344 q 0.3125,-0.4219 0.7031,-0.6407 0.3906,-0.2187 0.9531,-0.2187 0.7188,0 1.2813,0.375 0.5625,0.375 0.8437,1.0547 0.2813,0.6797 0.2813,1.5078 0,0.875 -0.3125,1.5703 -0.3125,0.6953 -0.9141,1.0703 -0.6015,0.375 -1.2578,0.375 -0.4844,0 -0.8672,-0.2031 -0.3828,-0.2031 -0.6328,-0.5156 l 0,2.7812 -0.9687,0 z m 0.875,-5 q 0,1.0938 0.4531,1.6172 0.4531,0.5234 1.0781,0.5234 0.6406,0 1.1016,-0.539 0.4609,-0.5391 0.4609,-1.6953 0,-1.0782 -0.4453,-1.625 -0.4453,-0.5469 -1.0703,-0.5469 -0.625,0 -1.1016,0.5781 -0.4765,0.5781 -0.4765,1.6875 z m 5.4062,-1.7969 0,-1.0937 1.0938,0 0,1.0937 -1.0938,0 z m 0,4.6094 0,-1.0937 1.0938,0 0,1.0937 -1.0938,0 z m 2,0.1406 2.2812,-8.1562 0.7813,0 -2.2813,8.1562 -0.7812,0 z m 3,0 2.2812,-8.1562 0.7813,0 -2.2813,8.1562 -0.7812,0 z m 4.7812,-0.1406 -1.75,-5.7031 1,0 0.9063,3.2969 0.3437,1.2187 q 0.0157,-0.0937 0.2969,-1.1719 l 0.9063,-3.3437 0.9844,0 0.8593,3.3125 0.2813,1.0781 0.3281,-1.0937 0.9844,-3.2969 0.9375,0 -1.7813,5.7031 -1,0 -0.9219,-3.4219 -0.2187,-0.9687 -1.1563,4.3906 -1,0 z m 10,0 -1.75,-5.7031 1,0 0.9063,3.2969 0.3437,1.2187 q 0.0157,-0.0937 0.2969,-1.1719 l 0.9063,-3.3437 0.9844,0 0.8593,3.3125 0.2813,1.0781 0.3281,-1.0937 0.9844,-3.2969 0.9375,0 -1.7813,5.7031 -1,0 -0.9219,-3.4219 -0.2187,-0.9687 -1.1563,4.3906 -1,0 z m 10,0 -1.75,-5.7031 1,0 0.9063,3.2969 0.3437,1.2187 q 0.0157,-0.0937 0.2969,-1.1719 l 0.9063,-3.3437 0.9844,0 0.8593,3.3125 0.2813,1.0781 0.3281,-1.0937 0.9844,-3.2969 0.9375,0 -1.7813,5.7031 -1,0 -0.9219,-3.4219 -0.2187,-0.9687 -1.1563,4.3906 -1,0 z m 9.2188,0 0,-1.0937 1.0938,0 0,1.0937 -1.0938,0 z m 3.7812,0 -1.75,-5.7031 1,0 0.9063,3.2969 0.3437,1.2187 q 0.0157,-0.0937 0.2969,-1.1719 l 0.9063,-3.3437 0.9844,0 0.8593,3.3125 0.2813,1.0781 0.3281,-1.0937 0.9844,-3.2969 0.9375,0 -1.7813,5.7031 -1,0 -0.9219,-3.4219 -0.2187,-0.9687 -1.1563,4.3906 -1,0 z m 8.6876,-2.0781 0.9531,-0.125 q 0.1719,0.8125 0.5703,1.1797 0.3984,0.3672 0.9766,0.3672 0.6874,0 1.1562,-0.4766 0.4688,-0.4766 0.4688,-1.1641 0,-0.6718 -0.4376,-1.1015 -0.4374,-0.4297 -1.1093,-0.4297 -0.2657,0 -0.6719,0.0937 l 0.0938,-0.8437 q 0.1093,0.0156 0.1562,0.0156 0.625,0 1.1172,-0.3203 0.4922,-0.3203 0.4922,-0.9922 0,-0.5312 -0.3594,-0.8828 -0.3594,-0.3516 -0.9219,-0.3516 -0.5625,0 -0.9375,0.3516 -0.375,0.3516 -0.4844,1.0703 l -0.9687,-0.1719 q 0.1719,-0.9843 0.8047,-1.5156 0.6328,-0.5312 1.5547,-0.5312 0.6562,0 1.1953,0.2734 0.539,0.2734 0.8281,0.7578 0.2891,0.4844 0.2891,1.0156 0,0.5157 -0.2735,0.9297 -0.2734,0.4141 -0.8203,0.6641 0.7032,0.1562 1.0938,0.664 0.3906,0.5079 0.3906,1.2735 0,1.0312 -0.7578,1.75 -0.7578,0.7187 -1.8984,0.7187 -1.0469,0 -1.7266,-0.6172 -0.6797,-0.6171 -0.7734,-1.6015 z m 6.5312,2.0781 0,-1.0937 1.0938,0 0,1.0937 -1.0938,0 z m 2.3594,-2.8594 q 0,-1.5781 0.8906,-2.3437 0.7344,-0.625 1.7969,-0.625 1.1719,0 1.914,0.7656 0.7422,0.7656 0.7422,2.125 0,1.1094 -0.3281,1.7422 -0.3281,0.6328 -0.9609,0.9766 -0.6329,0.3437 -1.3672,0.3437 -1.2031,0 -1.9453,-0.7656 -0.7422,-0.7656 -0.7422,-2.2188 z m 1,0 q 0,1.1094 0.4765,1.6485 0.4766,0.539 1.211,0.539 0.7187,0 1.1953,-0.5468 0.4766,-0.5469 0.4766,-1.6719 0,-1.0469 -0.4844,-1.5938 -0.4844,-0.5468 -1.1875,-0.5468 -0.7344,0 -1.211,0.539 -0.4765,0.5391 -0.4765,1.6328 z m 5.3594,2.8594 0,-5.7031 0.8593,0 0,0.8594 q 0.3438,-0.6094 0.625,-0.7969 0.2813,-0.1875 0.6094,-0.1875 0.5,0 1,0.3125 l -0.3281,0.8906 q -0.3594,-0.2031 -0.7188,-0.2031 -0.3125,0 -0.5625,0.1875 -0.25,0.1875 -0.3593,0.5312 -0.1563,0.5157 -0.1563,1.125 l 0,2.9844 -0.9687,0 z m 3.8281,0.4688 0.9375,0.1406 q 0.0625,0.4375 0.3281,0.6406 0.3594,0.2656 0.9844,0.2656 0.6719,0 1.039,-0.2656 0.3672,-0.2656 0.4922,-0.75 0.0781,-0.2969 0.0781,-1.25 -0.6406,0.75 -1.5937,0.75 -1.1719,0 -1.8125,-0.8516 -0.6406,-0.8515 -0.6406,-2.039 0,-0.8125 0.2968,-1.5 0.2969,-0.6875 0.8516,-1.0625 0.5547,-0.375 1.3203,-0.375 1,0 1.6563,0.8125 l 0,-0.6875 0.8906,0 0,4.9219 q 0,1.3437 -0.2656,1.8984 -0.2656,0.5547 -0.8594,0.875 -0.5938,0.3203 -1.4531,0.3203 -1.0157,0 -1.6407,-0.4609 -0.625,-0.461 -0.6093,-1.3828 z m 0.7969,-3.4219 q 0,1.125 0.4453,1.6406 0.4453,0.5156 1.1171,0.5156 0.6719,0 1.125,-0.5156 0.4532,-0.5156 0.4532,-1.6094 0,-1.0468 -0.4688,-1.5781 -0.4687,-0.5312 -1.125,-0.5312 -0.6406,0 -1.0937,0.5234 -0.4531,0.5234 -0.4531,1.5547 z m 4.6562,3.0937 2.2812,-8.1562 0.7813,0 -2.2813,8.1562 -0.7812,0 z m 7.0938,-0.1406 -0.9688,0 0,-6.1562 q -0.3438,0.3281 -0.9062,0.664 -0.5626,0.336 -1.0157,0.4922 l 0,-0.9375 q 0.8125,-0.375 1.4141,-0.9141 0.6016,-0.539 0.8516,-1.0546 l 0.625,0 0,7.9062 z m 2.5156,-1.8281 0.9218,-0.0781 q 0.125,0.6562 0.4532,0.9531 0.3281,0.2969 0.8594,0.2969 0.4374,0 0.7734,-0.2032 0.3359,-0.2031 0.5547,-0.5468 0.2187,-0.3438 0.3593,-0.9219 0.1407,-0.5781 0.1407,-1.1875 0,-0.0625 0,-0.1875 -0.2969,0.4531 -0.7969,0.7422 -0.5,0.289 -1.0938,0.289 -0.9687,0 -1.6484,-0.7109 -0.6797,-0.7109 -0.6797,-1.8672 0,-1.2031 0.711,-1.9297 0.7109,-0.7265 1.7734,-0.7265 0.7656,0 1.3984,0.414 0.6329,0.4141 0.9688,1.1797 0.3359,0.7656 0.3359,2.2188 0,1.5 -0.3281,2.3984 -0.3281,0.8984 -0.9766,1.3672 -0.6484,0.4687 -1.5234,0.4687 -0.9219,0 -1.5078,-0.5156 -0.5859,-0.5156 -0.6953,-1.4531 z m 3.9531,-3.4688 q 0,-0.8281 -0.4453,-1.3203 -0.4453,-0.4922 -1.0703,-0.4922 -0.6407,0 -1.1172,0.5313 -0.4766,0.5312 -0.4766,1.3594 0,0.75 0.4531,1.2187 0.4532,0.4688 1.125,0.4688 0.6719,0 1.1016,-0.4688 0.4297,-0.4687 0.4297,-1.2969 z m 2.0469,3.4688 0.9218,-0.0781 q 0.125,0.6562 0.4532,0.9531 0.3281,0.2969 0.8594,0.2969 0.4374,0 0.7734,-0.2032 0.3359,-0.2031 0.5547,-0.5468 0.2187,-0.3438 0.3593,-0.9219 0.1407,-0.5781 0.1407,-1.1875 0,-0.0625 0,-0.1875 -0.2969,0.4531 -0.7969,0.7422 -0.5,0.289 -1.0938,0.289 -0.9687,0 -1.6484,-0.7109 -0.6797,-0.7109 -0.6797,-1.8672 0,-1.2031 0.711,-1.9297 0.7109,-0.7265 1.7734,-0.7265 0.7656,0 1.3984,0.414 0.6329,0.4141 0.9688,1.1797 0.3359,0.7656 0.3359,2.2188 0,1.5 -0.3281,2.3984 -0.3281,0.8984 -0.9766,1.3672 -0.6484,0.4687 -1.5234,0.4687 -0.9219,0 -1.5078,-0.5156 -0.5859,-0.5156 -0.6953,-1.4531 z m 3.9531,-3.4688 q 0,-0.8281 -0.4453,-1.3203 -0.4453,-0.4922 -1.0703,-0.4922 -0.6407,0 -1.1172,0.5313 -0.4766,0.5312 -0.4766,1.3594 0,0.75 0.4531,1.2187 0.4532,0.4688 1.125,0.4688 0.6719,0 1.1016,-0.4688 0.4297,-0.4687 0.4297,-1.2969 z m 2.0469,3.4688 0.9218,-0.0781 q 0.125,0.6562 0.4532,0.9531 0.3281,0.2969 0.8594,0.2969 0.4374,0 0.7734,-0.2032 0.3359,-0.2031 0.5547,-0.5468 0.2187,-0.3438 0.3593,-0.9219 0.1407,-0.5781 0.1407,-1.1875 0,-0.0625 0,-0.1875 -0.2969,0.4531 -0.7969,0.7422 -0.5,0.289 -1.0938,0.289 -0.9687,0 -1.6484,-0.7109 -0.6797,-0.7109 -0.6797,-1.8672 0,-1.2031 0.711,-1.9297 0.7109,-0.7265 1.7734,-0.7265 0.7656,0 1.3984,0.414 0.6329,0.4141 0.9688,1.1797 0.3359,0.7656 0.3359,2.2188 0,1.5 -0.3281,2.3984 -0.3281,0.8984 -0.9766,1.3672 -0.6484,0.4687 -1.5234,0.4687 -0.9219,0 -1.5078,-0.5156 -0.5859,-0.5156 -0.6953,-1.4531 z m 3.9531,-3.4688 q 0,-0.8281 -0.4453,-1.3203 -0.4453,-0.4922 -1.0703,-0.4922 -0.6407,0 -1.1172,0.5313 -0.4766,0.5312 -0.4766,1.3594 0,0.75 0.4531,1.2187 0.4532,0.4688 1.125,0.4688 0.6719,0 1.1016,-0.4688 0.4297,-0.4687 0.4297,-1.2969 z m 1.4375,5.4375 2.2812,-8.1562 0.7813,0 -2.2813,8.1562 -0.7812,0 z m 3.0781,-0.1406 2.0938,-2.9687 -1.9375,-2.7344 1.2031,0 0.8906,1.3437 q 0.2344,0.375 0.3907,0.625 0.2343,-0.3437 0.4374,-0.625 l 0.9532,-1.3437 1.1562,0 -1.9687,2.6875 2.125,3.0156 -1.1875,0 -1.1719,-1.7656 -0.3125,-0.4844 -1.5,2.25 -1.1719,0 z m 6.6407,0 0,-7.875 0.9687,0 0,2.8281 q 0.6875,-0.7812 1.7187,-0.7812 0.625,0 1.0938,0.25 0.4688,0.25 0.6719,0.6875 0.2031,0.4375 0.2031,1.2812 l 0,3.6094 -0.9688,0 0,-3.6094 q 0,-0.7343 -0.3124,-1.0625 -0.3126,-0.3281 -0.8907,-0.3281 -0.4375,0 -0.8125,0.2188 -0.375,0.2187 -0.539,0.6015 -0.1641,0.3828 -0.1641,1.0547 l 0,3.125 -0.9687,0 z m 8.125,-0.8594 0.125,0.8438 q -0.4063,0.0937 -0.7188,0.0937 -0.5312,0 -0.8203,-0.1718 -0.2891,-0.1719 -0.4063,-0.4375 -0.1172,-0.2657 -0.1172,-1.1407 l 0,-3.2812 -0.7187,0 0,-0.75 0.7187,0 0,-1.4063 0.9532,-0.5937 0,2 0.9844,0 0,0.75 -0.9844,0 0,3.3437 q 0,0.4063 0.0547,0.5235 0.0547,0.1172 0.1718,0.1875 0.1172,0.0703 0.3203,0.0703 0.1719,0 0.4376,-0.0313 z m 0.875,0.8594 0,-5.7031 0.875,0 0,0.7969 q 0.2656,-0.4219 0.7109,-0.6719 0.4453,-0.25 1.0078,-0.25 0.6406,0 1.0469,0.2578 0.4062,0.2578 0.5781,0.7422 0.6719,-1 1.75,-1 0.8594,0 1.3125,0.4687 0.4531,0.4688 0.4531,1.4375 l 0,3.9219 -0.9531,0 0,-3.5937 q 0,-0.5782 -0.0938,-0.836 -0.0937,-0.2578 -0.3437,-0.414 -0.25,-0.1563 -0.5781,-0.1563 -0.6094,0 -1.0078,0.4063 -0.3985,0.4062 -0.3985,1.2812 l 0,3.3125 -0.9687,0 0,-3.7031 q 0,-0.6406 -0.2344,-0.9688 -0.2344,-0.3281 -0.7656,-0.3281 -0.4063,0 -0.7578,0.2188 -0.3516,0.2187 -0.5078,0.6328 -0.1563,0.414 -0.1563,1.1953 l 0,2.9531 -0.9687,0 z m 7.9843,0 0,-7.875 0.9688,0 0,7.875 -0.9688,0 z"
     clip-path="url(#clipPath2)"
     id="path3159"
     inkscape:connector-curvature="0"
     style="fill:#804000;stroke:none"
     transform="translate(-81,-60)" />
  <line
     y2="158"
     x1="462"
     clip-path="url(#clipPath2)"
     x2="760"
     y1="158"
     id="line3161"
     style="fill:none;stroke:#99795c;stroke-linecap:butt;stroke-linejoin:round"
     transform="translate(-81,-60)" />
  <path
     d="m 595.8125,132.4978 0,-7.875 1.5469,0 3.2344,5.2656 0,-5.2656 1.4687,0 0,7.875 -1.5937,0 -3.1719,-5.1406 0,5.1406 -1.4844,0 z m 6.625,-2.9375 q 0,-0.75 0.375,-1.4531 0.375,-0.7031 1.0547,-1.0703 0.6797,-0.3672 1.5078,-0.3672 1.2969,0 2.125,0.8359 0.8281,0.836 0.8281,2.1172 0,1.2969 -0.8359,2.1484 -0.836,0.8516 -2.1016,0.8516 -0.7812,0 -1.4922,-0.3516 -0.7109,-0.3515 -1.0859,-1.039 -0.375,-0.6875 -0.375,-1.6719 z m 1.5469,0.0781 q 0,0.8594 0.4062,1.3125 0.4063,0.4532 1,0.4532 0.5782,0 0.9844,-0.4532 0.4062,-0.4531 0.4062,-1.3125 0,-0.8437 -0.4062,-1.2968 -0.4062,-0.4532 -0.9844,-0.4532 -0.5937,0 -1,0.4532 -0.4062,0.4531 -0.4062,1.2968 z m 8.4218,-2.8437 0,1.2031 -1.0312,0 0,2.2969 q 0,0.7031 0.0312,0.8203 0.0313,0.1172 0.1329,0.1875 0.1015,0.0703 0.2578,0.0703 0.2031,0 0.6093,-0.1406 l 0.125,1.1719 q -0.5312,0.2187 -1.1874,0.2187 -0.4219,0 -0.75,-0.1328 -0.3282,-0.1328 -0.4766,-0.3516 -0.1484,-0.2187 -0.211,-0.5937 -0.0468,-0.2656 -0.0468,-1.0625 l 0,-2.4844 -0.6875,0 0,-1.2031 0.6875,0 0,-1.1406 1.5156,-0.875 0,2.0156 1.0312,0 z m 4.6876,3.8906 1.5,0.25 q -0.2813,0.8281 -0.9063,1.2578 -0.625,0.4297 -1.5781,0.4297 -1.4844,0 -2.2032,-0.9687 -0.5624,-0.7813 -0.5624,-1.9688 0,-1.4219 0.7421,-2.2187 0.7422,-0.7969 1.8829,-0.7969 1.2656,0 2,0.8359 0.7343,0.836 0.7031,2.5703 l -3.7813,0 q 0.0156,0.6719 0.3672,1.0469 0.3516,0.375 0.8672,0.375 0.3594,0 0.6016,-0.1953 0.2422,-0.1953 0.3672,-0.6172 z m 0.0781,-1.5312 q -0.0157,-0.6563 -0.336,-0.9922 -0.3203,-0.336 -0.7734,-0.336 -0.5,0 -0.8281,0.3594 -0.3125,0.3594 -0.3125,0.9688 l 2.25,0 z m 3.0937,1.7187 1.5,-0.2344 q 0.1094,0.4375 0.3985,0.6641 0.289,0.2266 0.8203,0.2266 0.5937,0 0.8906,-0.2032 0.2031,-0.1562 0.2031,-0.4062 0,-0.1719 -0.1093,-0.2813 -0.125,-0.1093 -0.5157,-0.2031 -1.8125,-0.4062 -2.3125,-0.7344 -0.6718,-0.4687 -0.6718,-1.2812 0,-0.75 0.5859,-1.25 0.5859,-0.5 1.8203,-0.5 1.1719,0 1.7344,0.375 0.5625,0.375 0.7812,1.125 l -1.4218,0.2656 q -0.0938,-0.3281 -0.3438,-0.5078 -0.25,-0.1797 -0.7344,-0.1797 -0.5937,0 -0.8437,0.1719 -0.1719,0.1094 -0.1719,0.2969 0,0.1718 0.1406,0.2812 0.2032,0.1563 1.4141,0.4297 1.2109,0.2734 1.6797,0.6641 0.4844,0.4062 0.4844,1.125 0,0.7812 -0.6563,1.3437 -0.6563,0.5625 -1.9531,0.5625 -1.1563,0 -1.836,-0.4687 -0.6796,-0.4688 -0.8828,-1.2813 z"
     clip-path="url(#clipPath2)"
     id="path3163"
     inkscape:connector-curvature="0"
     style="fill:#000000;stroke:none"
     transform="translate(-81,-60)" />
  <rect
     x="465"
     y="199"
     clip-path="url(#clipPath2)"
     width="298"
     height="48"
     id="rect3165"
     style="fill:#b2b2b2;stroke:none"
     transform="translate(-81,-60)" />
  <rect
     x="462"
     y="196"
     clip-path="url(#clipPath2)"
     width="298"
     height="48"
     id="rect3167"
     style="fill:url(#linearGradient3295);stroke:none"
     transform="translate(-81,-60)" />
  <rect
     x="462"
     width="298"
     height="48"
     y="196"
     clip-path="url(#clipPath2)"
     id="rect3169"
     style="fill:none;stroke:#99795c;stroke-linecap:butt;stroke-linejoin:round"
     transform="translate(-81,-60)" />
  <line
     y2="214"
     x1="462"
     clip-path="url(#clipPath2)"
     x2="760"
     y1="214"
     id="line3171"
     style="fill:none;stroke:#99795c;stroke-linecap:butt;stroke-linejoin:round"
     transform="translate(-81,-60)" />
  <path
     d="m 465.3438,225.1384 0,-0.9687 2.9687,0 0,0.9687 -2.9687,0 z"
     clip-path="url(#clipPath2)"
     id="path3173"
     inkscape:connector-curvature="0"
     style="fill:#000000;stroke:none"
     transform="translate(-81,-60)" />
  <path
     d="m 473.4531,226.7947 q -0.5469,0.4531 -1.039,0.6406 -0.4922,0.1875 -1.0703,0.1875 -0.9376,0 -1.4454,-0.4609 -0.5078,-0.461 -0.5078,-1.1641 0,-0.4219 0.1953,-0.7656 0.1953,-0.3438 0.5,-0.5547 0.3047,-0.2109 0.6953,-0.3203 0.2813,-0.0781 0.8594,-0.1406 1.1719,-0.1407 1.7188,-0.3438 0.0156,-0.1875 0.0156,-0.25 0,-0.5937 -0.2812,-0.8281 -0.3594,-0.3281 -1.0938,-0.3281 -0.6875,0 -1.0078,0.2343 -0.3203,0.2344 -0.4766,0.8438 l -0.9531,-0.125 q 0.125,-0.6094 0.4219,-0.9844 0.2968,-0.375 0.8594,-0.5703 0.5624,-0.1953 1.2968,-0.1953 0.7344,0 1.1875,0.1719 0.4531,0.1718 0.6641,0.4296 0.2109,0.2579 0.3047,0.6485 0.0469,0.25 0.0469,0.9062 l 0,1.2813 q 0,1.3437 0.0624,1.7031 0.0626,0.3594 0.25,0.6875 l -1.0156,0 q -0.1562,-0.2969 -0.1875,-0.7031 z m -0.0937,-2.1563 q -0.5156,0.2188 -1.5782,0.3594 -0.5937,0.0938 -0.8359,0.1953 -0.2422,0.1016 -0.3828,0.3125 -0.1406,0.211 -0.1406,0.461 0,0.3906 0.2969,0.6484 0.2968,0.2578 0.8593,0.2578 0.5625,0 0.9922,-0.25 0.4297,-0.25 0.6485,-0.6719 0.1406,-0.3281 0.1406,-0.9687 l 0,-0.3438 z m 2.3594,2.8594 0,-5.7031 0.875,0 0,0.8125 q 0.625,-0.9375 1.8124,-0.9375 0.5157,0 0.9532,0.1797 0.4375,0.1797 0.6484,0.4843 0.211,0.3047 0.3047,0.711 0.0469,0.2812 0.0469,0.9531 l 0,3.5 -0.9688,0 0,-3.4687 q 0,-0.5938 -0.1094,-0.8829 -0.1093,-0.289 -0.3984,-0.4687 -0.289,-0.1797 -0.6797,-0.1797 -0.6093,0 -1.0625,0.3906 -0.4531,0.3907 -0.4531,1.5 l 0,3.1094 -0.9687,0 z m 5.9687,2.2031 -0.1094,-0.9062 q 0.3125,0.0781 0.5469,0.0781 0.3281,0 0.5234,-0.1094 0.1954,-0.1093 0.3047,-0.2968 0.0938,-0.1407 0.2969,-0.7188 0.0312,-0.0781 0.0938,-0.2344 l -2.1719,-5.7187 1.0469,0 1.1874,3.2969 q 0.2344,0.6406 0.4063,1.3281 0.1719,-0.6719 0.4063,-1.2969 l 1.2187,-3.3281 0.9687,0 -2.1718,5.7969 q -0.3438,0.9375 -0.5469,1.2968 -0.25,0.4844 -0.5859,0.7032 -0.336,0.2187 -0.7891,0.2187 -0.2813,0 -0.625,-0.1094 z m 5.2969,-2.2031 3.0312,-7.875 1.1094,0 3.2344,7.875 -1.1875,0 -0.9219,-2.3906 -3.2969,0 -0.8593,2.3906 -1.1094,0 z m 2.2656,-3.2344 2.6719,0 -0.8125,-2.1875 q -0.375,-0.9843 -0.5625,-1.625 -0.1563,0.75 -0.4219,1.5 l -0.875,2.3125 z m 6.4688,3.2344 0,-5.7031 0.875,0 0,0.8125 q 0.625,-0.9375 1.8124,-0.9375 0.5157,0 0.9532,0.1797 0.4375,0.1797 0.6484,0.4843 0.211,0.3047 0.3047,0.711 0.0469,0.2812 0.0469,0.9531 l 0,3.5 -0.9688,0 0,-3.4687 q 0,-0.5938 -0.1094,-0.8829 -0.1093,-0.289 -0.3984,-0.4687 -0.289,-0.1797 -0.6797,-0.1797 -0.6093,0 -1.0625,0.3906 -0.4531,0.3907 -0.4531,1.5 l 0,3.1094 -0.9687,0 z m 6,0 0,-5.7031 0.875,0 0,0.8125 q 0.625,-0.9375 1.8124,-0.9375 0.5157,0 0.9532,0.1797 0.4375,0.1797 0.6484,0.4843 0.211,0.3047 0.3047,0.711 0.0469,0.2812 0.0469,0.9531 l 0,3.5 -0.9688,0 0,-3.4687 q 0,-0.5938 -0.1094,-0.8829 -0.1093,-0.289 -0.3984,-0.4687 -0.289,-0.1797 -0.6797,-0.1797 -0.6093,0 -1.0625,0.3906 -0.4531,0.3907 -0.4531,1.5 l 0,3.1094 -0.9687,0 z m 5.6406,-2.8594 q 0,-1.5781 0.8906,-2.3437 0.7344,-0.625 1.7969,-0.625 1.1719,0 1.914,0.7656 0.7422,0.7656 0.7422,2.125 0,1.1094 -0.3281,1.7422 -0.3281,0.6328 -0.9609,0.9766 -0.6329,0.3437 -1.3672,0.3437 -1.2031,0 -1.9453,-0.7656 -0.7422,-0.7656 -0.7422,-2.2188 z m 1,0 q 0,1.1094 0.4765,1.6485 0.4766,0.539 1.211,0.539 0.7187,0 1.1953,-0.5468 0.4766,-0.5469 0.4766,-1.6719 0,-1.0469 -0.4844,-1.5938 -0.4844,-0.5468 -1.1875,-0.5468 -0.7344,0 -1.211,0.539 -0.4765,0.5391 -0.4765,1.6328 z m 7.4844,2 0.125,0.8438 q -0.4063,0.0937 -0.7188,0.0937 -0.5312,0 -0.8203,-0.1718 -0.2891,-0.1719 -0.4063,-0.4375 -0.1172,-0.2657 -0.1172,-1.1407 l 0,-3.2812 -0.7187,0 0,-0.75 0.7187,0 0,-1.4063 0.9532,-0.5937 0,2 0.9844,0 0,0.75 -0.9844,0 0,3.3437 q 0,0.4063 0.0547,0.5235 0.0547,0.1172 0.1718,0.1875 0.1172,0.0703 0.3203,0.0703 0.1719,0 0.4376,-0.0313 z m 4.6093,0.1563 q -0.5469,0.4531 -1.039,0.6406 -0.4922,0.1875 -1.0703,0.1875 -0.9376,0 -1.4454,-0.4609 -0.5078,-0.461 -0.5078,-1.1641 0,-0.4219 0.1953,-0.7656 0.1953,-0.3438 0.5,-0.5547 0.3047,-0.2109 0.6953,-0.3203 0.2813,-0.0781 0.8594,-0.1406 1.1719,-0.1407 1.7188,-0.3438 0.0156,-0.1875 0.0156,-0.25 0,-0.5937 -0.2812,-0.8281 -0.3594,-0.3281 -1.0938,-0.3281 -0.6875,0 -1.0078,0.2343 -0.3203,0.2344 -0.4766,0.8438 l -0.9531,-0.125 q 0.125,-0.6094 0.4219,-0.9844 0.2968,-0.375 0.8594,-0.5703 0.5624,-0.1953 1.2968,-0.1953 0.7344,0 1.1875,0.1719 0.4531,0.1718 0.6641,0.4296 0.2109,0.2579 0.3047,0.6485 0.0469,0.25 0.0469,0.9062 l 0,1.2813 q 0,1.3437 0.0624,1.7031 0.0626,0.3594 0.25,0.6875 l -1.0156,0 q -0.1562,-0.2969 -0.1875,-0.7031 z m -0.0937,-2.1563 q -0.5156,0.2188 -1.5782,0.3594 -0.5937,0.0938 -0.8359,0.1953 -0.2422,0.1016 -0.3828,0.3125 -0.1406,0.211 -0.1406,0.461 0,0.3906 0.2969,0.6484 0.2968,0.2578 0.8593,0.2578 0.5625,0 0.9922,-0.25 0.4297,-0.25 0.6485,-0.6719 0.1406,-0.3281 0.1406,-0.9687 l 0,-0.3438 z m 4.4844,2 0.125,0.8438 q -0.4063,0.0937 -0.7188,0.0937 -0.5312,0 -0.8203,-0.1718 -0.2891,-0.1719 -0.4063,-0.4375 -0.1172,-0.2657 -0.1172,-1.1407 l 0,-3.2812 -0.7187,0 0,-0.75 0.7187,0 0,-1.4063 0.9532,-0.5937 0,2 0.9844,0 0,0.75 -0.9844,0 0,3.3437 q 0,0.4063 0.0547,0.5235 0.0547,0.1172 0.1718,0.1875 0.1172,0.0703 0.3203,0.0703 0.1719,0 0.4376,-0.0313 z m 0.8906,-5.9062 0,-1.1094 0.9687,0 0,1.1094 -0.9687,0 z m 0,6.7656 0,-5.7031 0.9687,0 0,5.7031 -0.9687,0 z m 1.625,-2.8594 q 0,-1.5781 0.8906,-2.3437 0.7344,-0.625 1.7969,-0.625 1.1719,0 1.914,0.7656 0.7422,0.7656 0.7422,2.125 0,1.1094 -0.3281,1.7422 -0.3281,0.6328 -0.9609,0.9766 -0.6329,0.3437 -1.3672,0.3437 -1.2031,0 -1.9453,-0.7656 -0.7422,-0.7656 -0.7422,-2.2188 z m 1,0 q 0,1.1094 0.4765,1.6485 0.4766,0.539 1.211,0.539 0.7187,0 1.1953,-0.5468 0.4766,-0.5469 0.4766,-1.6719 0,-1.0469 -0.4844,-1.5938 -0.4844,-0.5468 -1.1875,-0.5468 -0.7344,0 -1.211,0.539 -0.4765,0.5391 -0.4765,1.6328 z m 5.3594,2.8594 0,-5.7031 0.875,0 0,0.8125 q 0.625,-0.9375 1.8124,-0.9375 0.5157,0 0.9532,0.1797 0.4375,0.1797 0.6484,0.4843 0.211,0.3047 0.3047,0.711 0.0469,0.2812 0.0469,0.9531 l 0,3.5 -0.9688,0 0,-3.4687 q 0,-0.5938 -0.1094,-0.8829 -0.1093,-0.289 -0.3984,-0.4687 -0.289,-0.1797 -0.6797,-0.1797 -0.6093,0 -1.0625,0.3906 -0.4531,0.3907 -0.4531,1.5 l 0,3.1094 -0.9687,0 z"
     clip-path="url(#clipPath2)"
     id="path3175"
     inkscape:connector-curvature="0"
     style="fill:#280000;stroke:none"
     transform="translate(-81,-60)" />
  <path
     d="m 543,222.8884 0,-1.0937 1.0938,0 0,1.0937 -1.0938,0 z m 0,4.6094 0,-1.0937 1.0938,0 0,1.0937 -1.0938,0 z m 5.0469,0 3.0469,-4.1094 -2.6876,-3.7656 1.25,0 1.4219,2.0156 q 0.4531,0.6407 0.6407,0.9688 0.25,-0.4219 0.6093,-0.8906 l 1.5938,-2.0938 1.125,0 -2.7657,3.7188 2.9844,4.1562 -1.2812,0 L 552,224.6853 q -0.1719,-0.2344 -0.3438,-0.5156 -0.2656,0.4219 -0.375,0.5781 l -1.9843,2.75 -1.25,0 z m 7.7656,0 0,-7.875 1.5781,0 1.8594,5.5781 q 0.25,0.7813 0.375,1.1563 0.1406,-0.4219 0.4219,-1.25 l 1.875,-5.4844 1.4062,0 0,7.875 -1,0 0,-6.5937 -2.2969,6.5937 -0.9374,0 -2.2657,-6.7031 0,6.7031 -1.0156,0 z m 8,0 0,-7.875 1.0313,0 0,6.9531 3.875,0 0,0.9219 -4.9063,0 z"
     clip-path="url(#clipPath2)"
     id="path3177"
     inkscape:connector-curvature="0"
     style="fill:#404040;stroke:none"
     transform="translate(-81,-60)" />
  <line
     y2="235"
     x1="462"
     clip-path="url(#clipPath2)"
     x2="760"
     y1="235"
     id="line3179"
     style="fill:none;stroke:#99795c;stroke-linecap:butt;stroke-linejoin:round"
     transform="translate(-81,-60)" />
  <path
     d="m 588.9062,209.4978 -1.7343,0 -0.6875,-1.7812 -3.1406,0 -0.6563,1.7812 -1.6875,0 3.0625,-7.875 1.6875,0 3.1562,7.875 z m -2.9374,-3.1094 -1.0782,-2.9218 -1.0625,2.9218 2.1407,0 z m 9.0156,3.1094 -1.5156,0 0,-2.9062 q 0,-0.9219 -0.0938,-1.1954 -0.0938,-0.2734 -0.3125,-0.4218 -0.2187,-0.1485 -0.5313,-0.1485 -0.3906,0 -0.7031,0.211 -0.3125,0.2109 -0.4297,0.5625 -0.1172,0.3515 -0.1172,1.3203 l 0,2.5781 -1.5,0 0,-5.7031 1.4063,0 0,0.8437 q 0.7344,-0.9687 1.875,-0.9687 0.5,0 0.9141,0.1797 0.414,0.1797 0.625,0.4531 0.2109,0.2734 0.2968,0.6328 0.086,0.3594 0.086,1.0156 l 0,3.5469 z m 7,0 -1.5156,0 0,-2.9062 q 0,-0.9219 -0.0938,-1.1954 -0.0938,-0.2734 -0.3125,-0.4218 -0.2187,-0.1485 -0.5313,-0.1485 -0.3906,0 -0.7031,0.211 -0.3125,0.2109 -0.4297,0.5625 -0.1172,0.3515 -0.1172,1.3203 l 0,2.5781 -1.5,0 0,-5.7031 1.4063,0 0,0.8437 q 0.7344,-0.9687 1.875,-0.9687 0.5,0 0.9141,0.1797 0.414,0.1797 0.625,0.4531 0.2109,0.2734 0.2968,0.6328 0.086,0.3594 0.086,1.0156 l 0,3.5469 z m 1.4531,-2.9375 q 0,-0.75 0.375,-1.4531 0.375,-0.7031 1.0547,-1.0703 0.6797,-0.3672 1.5078,-0.3672 1.2969,0 2.125,0.8359 0.8281,0.836 0.8281,2.1172 0,1.2969 -0.8359,2.1484 -0.836,0.8516 -2.1016,0.8516 -0.7812,0 -1.4922,-0.3516 -0.7109,-0.3515 -1.0859,-1.039 -0.375,-0.6875 -0.375,-1.6719 z m 1.5469,0.0781 q 0,0.8594 0.4062,1.3125 0.4063,0.4532 1,0.4532 0.5782,0 0.9844,-0.4532 0.4062,-0.4531 0.4062,-1.3125 0,-0.8437 -0.4062,-1.2968 -0.4062,-0.4532 -0.9844,-0.4532 -0.5937,0 -1,0.4532 -0.4062,0.4531 -0.4062,1.2968 z m 8.4218,-2.8437 0,1.2031 -1.0312,0 0,2.2969 q 0,0.7031 0.0312,0.8203 0.0313,0.1172 0.1329,0.1875 0.1015,0.0703 0.2578,0.0703 0.2031,0 0.6093,-0.1406 l 0.125,1.1719 q -0.5312,0.2187 -1.1874,0.2187 -0.4219,0 -0.75,-0.1328 -0.3282,-0.1328 -0.4766,-0.3516 -0.1484,-0.2187 -0.211,-0.5937 -0.0468,-0.2656 -0.0468,-1.0625 l 0,-2.4844 -0.6875,0 0,-1.2031 0.6875,0 0,-1.1406 1.5156,-0.875 0,2.0156 1.0312,0 z m 2.5157,1.7344 -1.375,-0.25 q 0.2343,-0.8125 0.7969,-1.211 0.5624,-0.3984 1.6718,-0.3984 1.0156,0 1.5078,0.2344 0.4922,0.2343 0.6954,0.6015 0.2031,0.3672 0.2031,1.3516 l -0.0157,1.7656 q 0,0.75 0.0704,1.1094 0.0703,0.3594 0.2734,0.7656 l -1.5,0 q -0.0625,-0.1562 -0.1406,-0.4531 -0.0313,-0.125 -0.0469,-0.1719 -0.3906,0.375 -0.8359,0.5625 -0.4454,0.1875 -0.9454,0.1875 -0.875,0 -1.3828,-0.4766 -0.5078,-0.4765 -0.5078,-1.2109 0,-0.4844 0.2344,-0.8594 0.2344,-0.375 0.6484,-0.5781 0.4141,-0.2031 1.1954,-0.3594 1.0624,-0.1875 1.4687,-0.3593 l 0,-0.1563 q 0,-0.4375 -0.2187,-0.6172 -0.2188,-0.1797 -0.8126,-0.1797 -0.3906,0 -0.6171,0.1563 -0.2266,0.1562 -0.3672,0.5469 z m 2.0156,1.2343 q -0.2969,0.0938 -0.9219,0.2266 -0.625,0.1328 -0.8125,0.2578 -0.2969,0.2188 -0.2969,0.5313 0,0.3281 0.2344,0.5546 0.2344,0.2266 0.5938,0.2266 0.4062,0 0.7812,-0.2656 0.2813,-0.2031 0.3594,-0.5 0.0625,-0.1875 0.0625,-0.7344 l 0,-0.2969 z m 5.4687,-2.9687 0,1.2031 -1.0312,0 0,2.2969 q 0,0.7031 0.0312,0.8203 0.0313,0.1172 0.1329,0.1875 0.1015,0.0703 0.2578,0.0703 0.2031,0 0.6093,-0.1406 l 0.125,1.1719 q -0.5312,0.2187 -1.1874,0.2187 -0.4219,0 -0.75,-0.1328 -0.3282,-0.1328 -0.4766,-0.3516 -0.1484,-0.2187 -0.211,-0.5937 -0.0468,-0.2656 -0.0468,-1.0625 l 0,-2.4844 -0.6875,0 0,-1.2031 0.6875,0 0,-1.1406 1.5156,-0.875 0,2.0156 1.0312,0 z m 1.3907,-0.7813 0,-1.3906 1.5,0 0,1.3906 -1.5,0 z m 0,6.4844 0,-5.7031 1.5,0 0,5.7031 -1.5,0 z m 2.6406,-2.9375 q 0,-0.75 0.375,-1.4531 0.375,-0.7031 1.0547,-1.0703 0.6797,-0.3672 1.5078,-0.3672 1.2969,0 2.125,0.8359 0.8281,0.836 0.8281,2.1172 0,1.2969 -0.8359,2.1484 -0.836,0.8516 -2.1016,0.8516 -0.7812,0 -1.4922,-0.3516 -0.7109,-0.3515 -1.0859,-1.039 -0.375,-0.6875 -0.375,-1.6719 z m 1.5469,0.0781 q 0,0.8594 0.4062,1.3125 0.4063,0.4532 1,0.4532 0.5782,0 0.9844,-0.4532 0.4062,-0.4531 0.4062,-1.3125 0,-0.8437 -0.4062,-1.2968 -0.4062,-0.4532 -0.9844,-0.4532 -0.5937,0 -1,0.4532 -0.4062,0.4531 -0.4062,1.2968 z m 11,2.8594 -1.5156,0 0,-2.9062 q 0,-0.9219 -0.0938,-1.1954 -0.0938,-0.2734 -0.3125,-0.4218 -0.2187,-0.1485 -0.5313,-0.1485 -0.3906,0 -0.7031,0.211 -0.3125,0.2109 -0.4297,0.5625 -0.1172,0.3515 -0.1172,1.3203 l 0,2.5781 -1.5,0 0,-5.7031 1.4063,0 0,0.8437 q 0.7344,-0.9687 1.875,-0.9687 0.5,0 0.9141,0.1797 0.414,0.1797 0.625,0.4531 0.2109,0.2734 0.2968,0.6328 0.086,0.3594 0.086,1.0156 l 0,3.5469 z"
     clip-path="url(#clipPath2)"
     id="path3181"
     inkscape:connector-curvature="0"
     style="fill:#000000;stroke:none"
     transform="translate(-81,-60)" />
  <rect
     x="94"
     y="164"
     clip-path="url(#clipPath2)"
     width="298"
     height="48"
     id="rect3183"
     style="fill:#b2b2b2;stroke:none"
     transform="translate(-81,-60)" />
  <rect
     x="91"
     y="161"
     clip-path="url(#clipPath2)"
     width="298"
     height="48"
     id="rect3185"
     style="fill:url(#linearGradient3297);stroke:none"
     transform="translate(-81,-60)" />
  <rect
     x="91"
     width="298"
     height="48"
     y="161"
     clip-path="url(#clipPath2)"
     id="rect3187"
     style="fill:none;stroke:#99795c;stroke-linecap:butt;stroke-linejoin:round"
     transform="translate(-81,-60)" />
  <line
     y2="179"
     x1="91"
     clip-path="url(#clipPath2)"
     x2="389"
     y1="179"
     id="line3189"
     style="fill:none;stroke:#99795c;stroke-linecap:butt;stroke-linejoin:round"
     transform="translate(-81,-60)" />
  <path
     d="m 96.75,191.2322 0,-2.1719 -2.1406,0 0,-0.8906 2.1406,0 0,-2.1563 0.9219,0 0,2.1563 2.1406,0 0,0.8906 -2.1406,0 0,2.1719 -0.9219,0 z"
     clip-path="url(#clipPath2)"
     id="path3191"
     inkscape:connector-curvature="0"
     style="fill:#000000;stroke:none"
     transform="translate(-81,-60)" />
  <path
     d="m 136,187.8884 0,-1.0937 1.0938,0 0,1.0937 -1.0938,0 z m 0,4.6094 0,-1.0937 1.0938,0 0,1.0937 -1.0938,0 z m 5.0469,0 3.0469,-4.1094 -2.6876,-3.7656 1.25,0 1.4219,2.0156 q 0.4531,0.6407 0.6407,0.9688 0.25,-0.4219 0.6093,-0.8906 l 1.5938,-2.0938 1.125,0 -2.7657,3.7188 2.9844,4.1562 -1.2812,0 L 145,189.6853 q -0.1719,-0.2344 -0.3438,-0.5156 -0.2656,0.4219 -0.375,0.5781 l -1.9843,2.75 -1.25,0 z m 7.7656,0 0,-7.875 1.5781,0 1.8594,5.5781 q 0.25,0.7813 0.375,1.1563 0.1406,-0.4219 0.4219,-1.25 l 1.875,-5.4844 1.4062,0 0,7.875 -1,0 0,-6.5937 -2.2969,6.5937 -0.9374,0 -2.2657,-6.7031 0,6.7031 -1.0156,0 z m 8,0 0,-7.875 1.0313,0 0,6.9531 3.875,0 0,0.9219 -4.9063,0 z m 6.2187,0 0,-7.875 1.0313,0 0,7.875 -1.0313,0 z m 1.8126,0 0,-7.875 2.7187,0 q 0.9219,0 1.4063,0.1094 0.6718,0.1562 1.1562,0.5625 0.6094,0.5312 0.9219,1.3515 0.3125,0.8204 0.3125,1.8672 0,0.9063 -0.211,1.5938 -0.2109,0.6875 -0.539,1.1406 -0.3282,0.4531 -0.7188,0.7188 -0.3906,0.2656 -0.9375,0.3984 -0.5469,0.1328 -1.2656,0.1328 l -2.8437,0 z m 1.0468,-0.9219 1.6875,0 q 0.7657,0 1.211,-0.1484 0.4453,-0.1484 0.7109,-0.4141 0.375,-0.375 0.5781,-1 0.2031,-0.625 0.2031,-1.5156 0,-1.2344 -0.4062,-1.8984 -0.4062,-0.6641 -0.9844,-0.8828 -0.4218,-0.1563 -1.3437,-0.1563 l -1.6563,0 0,6.0156 z m 8.8594,3.1094 0,-10.0625 2.125,0 0,0.7969 -1.1562,0 0,8.4687 1.1562,0 0,0.7969 -2.125,0 z m 2.7031,-6.0781 q 0,-1.3906 0.2891,-2.2422 0.289,-0.8516 0.8594,-1.3125 0.5703,-0.4609 1.4296,-0.4609 0.625,0 1.1016,0.2578 0.4766,0.2578 0.7891,0.7343 0.3125,0.4766 0.4922,1.1719 0.1797,0.6953 0.1797,1.8516 0,1.3906 -0.2891,2.2422 -0.2891,0.8515 -0.8516,1.3203 -0.5625,0.4687 -1.4219,0.4687 -1.1406,0 -1.7968,-0.8281 -0.7813,-0.9844 -0.7813,-3.2031 z m 1,0 q 0,1.9531 0.4531,2.5937 0.4532,0.6407 1.125,0.6407 0.6563,0 1.1094,-0.6485 0.4532,-0.6484 0.4532,-2.5859 0,-1.9375 -0.4532,-2.5781 -0.4531,-0.6407 -1.125,-0.6407 -0.6718,0 -1.0625,0.5625 -0.5,0.7188 -0.5,2.6563 z m 5.5469,3.8906 0,-1.0937 1.0938,0 0,1.0937 -1.0938,0 z m 3,0 0,-1.0937 1.0938,0 0,1.0937 -1.0938,0 z m 6.0938,0 -0.9688,0 0,-6.1562 q -0.3438,0.3281 -0.9062,0.664 -0.5626,0.336 -1.0157,0.4922 l 0,-0.9375 q 0.8125,-0.375 1.4141,-0.9141 0.6016,-0.539 0.8516,-1.0546 l 0.625,0 0,7.9062 z m 4.25,2.1875 -2.1407,0 0,-0.7969 1.1719,0 0,-8.4687 -1.1719,0 0,-0.7969 2.1407,0 0,10.0625 z"
     clip-path="url(#clipPath2)"
     id="path3195"
     inkscape:connector-curvature="0"
     style="fill:#404040;stroke:none"
     transform="translate(-81,-60)" />
  <line
     y2="200"
     x1="91"
     clip-path="url(#clipPath2)"
     x2="389"
     y1="200"
     id="line3197"
     style="fill:none;stroke:#99795c;stroke-linecap:butt;stroke-linejoin:round"
     transform="translate(-81,-60)" />
  <path
     d="m 215.3906,171.9353 1.5469,-0.1562 q 0.1406,0.7812 0.5703,1.1484 0.4297,0.3672 1.1484,0.3672 0.7813,0 1.1641,-0.3281 0.3828,-0.3282 0.3828,-0.75 0,-0.2813 -0.164,-0.4766 -0.1641,-0.1953 -0.5703,-0.3516 -0.2813,-0.0937 -1.2657,-0.3437 -1.2812,-0.3125 -1.7969,-0.7813 -0.7187,-0.6406 -0.7187,-1.5781 0,-0.5937 0.3359,-1.1172 0.336,-0.5234 0.9766,-0.8047 0.6406,-0.2812 1.5625,-0.2812 1.4687,0 2.2187,0.6562 0.75,0.6563 0.7969,1.7344 l -1.5937,0.0781 q -0.1094,-0.6093 -0.4375,-0.875 -0.3281,-0.2656 -1,-0.2656 -0.7031,0 -1.0938,0.2813 -0.25,0.1875 -0.25,0.4843 0,0.2813 0.2344,0.4844 0.2969,0.25 1.4609,0.5234 1.1641,0.2735 1.7188,0.5625 0.5547,0.2891 0.8672,0.7969 0.3125,0.5078 0.3125,1.2578 0,0.6875 -0.375,1.2735 -0.375,0.5859 -1.0625,0.875 -0.6875,0.289 -1.7188,0.289 -1.4844,0 -2.289,-0.6875 -0.8047,-0.6875 -0.961,-2.0156 z m 7.4063,2.5625 0,-7.875 5.8437,0 0,1.3281 -4.25,0 0,1.75 3.9532,0 0,1.3282 -3.9532,0 0,2.1406 4.4063,0 0,1.3281 -6,0 z m 6,-7.875 2.9062,0 q 0.9844,0 1.5,0.1563 0.6875,0.2031 1.1797,0.7187 0.4922,0.5156 0.75,1.2734 0.2578,0.7579 0.2578,1.8672 0,0.9688 -0.2344,1.6719 -0.2968,0.8594 -0.8437,1.3906 -0.4219,0.4063 -1.125,0.625 -0.5156,0.1719 -1.4063,0.1719 l -2.9843,0 0,-7.875 z m 1.5937,1.3281 0,5.2188 1.1875,0 q 0.6563,0 0.9531,-0.0781 0.3907,-0.0938 0.6485,-0.3204 0.2578,-0.2265 0.4141,-0.7578 0.1562,-0.5312 0.1562,-1.4531 0,-0.9062 -0.1562,-1.3984 -0.1563,-0.4922 -0.4532,-0.7657 -0.2968,-0.2734 -0.7344,-0.3671 -0.3281,-0.0782 -1.3124,-0.0782 l -0.7032,0 z m 5.4219,-1.3281 3.1406,0 q 0.9375,0 1.3985,0.0781 0.4609,0.0782 0.8203,0.3282 0.3593,0.25 0.6015,0.6562 0.2422,0.4063 0.2422,0.9219 0,0.5469 -0.2968,1.0078 -0.2969,0.4609 -0.8126,0.6953 0.7188,0.2188 1.1094,0.7188 0.3906,0.5 0.3906,1.1875 0,0.5312 -0.25,1.039 -0.25,0.5078 -0.6874,0.8125 -0.4376,0.3047 -1.0626,0.3828 -0.4062,0.0313 -1.9218,0.0469 l -2.6719,0 0,-7.875 z m 1.5781,1.3125 0,1.8125 1.0469,0 q 0.9219,0 1.1563,-0.0156 0.4062,-0.0469 0.6406,-0.2813 0.2344,-0.2343 0.2344,-0.625 0,-0.3593 -0.2032,-0.5859 -0.2031,-0.2266 -0.5937,-0.2734 -0.2344,-0.0313 -1.3594,-0.0313 l -0.9219,0 z m 0,3.125 0,2.1094 1.4844,0 q 0.8594,0 1.0781,-0.0469 0.3594,-0.0625 0.586,-0.3125 0.2265,-0.25 0.2265,-0.6719 0,-0.3593 -0.1718,-0.6015 -0.1719,-0.2422 -0.5,-0.3594 -0.3282,-0.1172 -1.4219,-0.1172 l -1.2813,0 z m 6.5313,-0.5312 -1.375,-0.25 q 0.2343,-0.8125 0.7969,-1.211 0.5624,-0.3984 1.6718,-0.3984 1.0156,0 1.5078,0.2344 0.4922,0.2343 0.6954,0.6015 0.2031,0.3672 0.2031,1.3516 l -0.0157,1.7656 q 0,0.75 0.0704,1.1094 0.0703,0.3594 0.2734,0.7656 l -1.5,0 q -0.0625,-0.1562 -0.1406,-0.4531 -0.0313,-0.125 -0.0469,-0.1719 -0.3906,0.375 -0.8359,0.5625 -0.4454,0.1875 -0.9454,0.1875 -0.875,0 -1.3828,-0.4766 -0.5078,-0.4765 -0.5078,-1.2109 0,-0.4844 0.2344,-0.8594 0.2344,-0.375 0.6484,-0.5781 0.4141,-0.2031 1.1954,-0.3594 1.0624,-0.1875 1.4687,-0.3593 l 0,-0.1563 q 0,-0.4375 -0.2187,-0.6172 -0.2188,-0.1797 -0.8126,-0.1797 -0.3906,0 -0.6171,0.1563 -0.2266,0.1562 -0.3672,0.5469 z m 2.0156,1.2343 q -0.2969,0.0938 -0.9219,0.2266 -0.625,0.1328 -0.8125,0.2578 -0.2969,0.2188 -0.2969,0.5313 0,0.3281 0.2344,0.5546 0.2344,0.2266 0.5938,0.2266 0.4062,0 0.7812,-0.2656 0.2813,-0.2031 0.3594,-0.5 0.0625,-0.1875 0.0625,-0.7344 l 0,-0.2969 z m 2.3281,1.1094 1.5,-0.2344 q 0.1094,0.4375 0.3985,0.6641 0.289,0.2266 0.8203,0.2266 0.5937,0 0.8906,-0.2032 0.2031,-0.1562 0.2031,-0.4062 0,-0.1719 -0.1093,-0.2813 -0.125,-0.1093 -0.5157,-0.2031 -1.8125,-0.4062 -2.3125,-0.7344 -0.6718,-0.4687 -0.6718,-1.2812 0,-0.75 0.5859,-1.25 0.5859,-0.5 1.8203,-0.5 1.1719,0 1.7344,0.375 0.5625,0.375 0.7812,1.125 l -1.4218,0.2656 q -0.0938,-0.3281 -0.3438,-0.5078 -0.25,-0.1797 -0.7344,-0.1797 -0.5937,0 -0.8437,0.1719 -0.1719,0.1094 -0.1719,0.2969 0,0.1718 0.1406,0.2812 0.2032,0.1563 1.4141,0.4297 1.2109,0.2734 1.6797,0.6641 0.4844,0.4062 0.4844,1.125 0,0.7812 -0.6563,1.3437 -0.6563,0.5625 -1.9531,0.5625 -1.1563,0 -1.836,-0.4687 -0.6796,-0.4688 -0.8828,-1.2813 z m 10.8282,-0.1875 1.5,0.25 q -0.2813,0.8281 -0.9063,1.2578 -0.625,0.4297 -1.5781,0.4297 -1.4844,0 -2.2032,-0.9687 -0.5624,-0.7813 -0.5624,-1.9688 0,-1.4219 0.7421,-2.2187 0.7422,-0.7969 1.8829,-0.7969 1.2656,0 2,0.8359 0.7343,0.836 0.7031,2.5703 l -3.7813,0 q 0.0156,0.6719 0.3672,1.0469 0.3516,0.375 0.8672,0.375 0.3594,0 0.6016,-0.1953 0.2422,-0.1953 0.3672,-0.6172 z m 0.0781,-1.5312 q -0.0157,-0.6563 -0.336,-0.9922 -0.3203,-0.336 -0.7734,-0.336 -0.5,0 -0.8281,0.3594 -0.3125,0.3594 -0.3125,0.9688 l 2.25,0 z"
     clip-path="url(#clipPath2)"
     id="path3199"
     inkscape:connector-curvature="0"
     style="fill:#000000;stroke:none"
     transform="translate(-81,-60)" />
  <rect
     x="206"
     y="88"
     clip-path="url(#clipPath2)"
     width="100"
     height="30"
     id="rect3201"
     style="fill:#b2b2b2;stroke:none"
     transform="translate(-81,-60)" />
  <polygon
     clip-path="url(#clipPath2)"
     points="303,85 288,85 288,70 "
     id="polygon3203"
     style="fill:url(#linearGradient3299);stroke:none"
     transform="translate(-81,-60)" />
  <polygon
     clip-path="url(#clipPath2)"
     points="303,85 288,85 288,70 "
     id="polygon3205"
     style="fill:none;stroke:url(#linearGradient3301);stroke-linecap:butt;stroke-linejoin:round"
     transform="translate(-81,-60)" />
  <polygon
     clip-path="url(#clipPath2)"
     points="303,85 288,85 288,70 303,85 288,70 203,70 203,115 303,115 "
     id="polygon3207"
     style="fill:url(#linearGradient3303);stroke:none"
     transform="translate(-81,-60)" />
  <polygon
     clip-path="url(#clipPath2)"
     points="303,85 288,85 288,70 303,85 288,70 203,70 203,115 303,115 "
     id="polygon3209"
     style="fill:none;stroke:#998d5c;stroke-linecap:butt;stroke-linejoin:round"
     transform="translate(-81,-60)" />
  <path
     d="m 205.9844,98.4978 3.0312,-7.875 1.1094,0 3.2344,7.875 -1.1875,0 -0.9219,-2.3906 -3.2969,0 -0.8593,2.3906 -1.1094,0 z m 2.2656,-3.2344 2.6719,0 -0.8125,-2.1875 q -0.375,-0.9843 -0.5625,-1.625 -0.1563,0.75 -0.4219,1.5 l -0.875,2.3125 z m 6.4531,3.2344 0,-7.875 0.9688,0 0,7.875 -0.9688,0 z m 2,0 0,-7.875 0.9688,0 0,7.875 -0.9688,0 z m 8.75,-2.0937 0.9375,0.125 q -0.1406,0.9843 -0.789,1.539 -0.6485,0.5547 -1.5704,0.5547 -1.1718,0 -1.8828,-0.7656 -0.7109,-0.7656 -0.7109,-2.1875 0,-0.9219 0.3047,-1.6172 0.3047,-0.6953 0.9297,-1.0391 0.625,-0.3437 1.3593,-0.3437 0.9219,0 1.5157,0.4687 0.5937,0.4688 0.7656,1.3282 l -0.9531,0.1406 q -0.125,-0.5625 -0.4688,-0.8516 -0.3437,-0.289 -0.8281,-0.289 -0.7187,0 -1.1797,0.5234 -0.4609,0.5234 -0.4609,1.6484 0,1.1563 0.4375,1.6719 0.4375,0.5156 1.1562,0.5156 0.5625,0 0.9453,-0.3437 0.3829,-0.3438 0.4922,-1.0781 z m 2.25,2.0937 0,-7.875 0.9688,0 0,7.875 -0.9688,0 z m 5.75,-0.7031 q -0.5469,0.4531 -1.039,0.6406 -0.4922,0.1875 -1.0703,0.1875 -0.9376,0 -1.4454,-0.4609 -0.5078,-0.461 -0.5078,-1.1641 0,-0.4219 0.1953,-0.7656 0.1953,-0.3438 0.5,-0.5547 0.3047,-0.2109 0.6953,-0.3203 0.2813,-0.0781 0.8594,-0.1406 1.1719,-0.1407 1.7188,-0.3438 0.0156,-0.1875 0.0156,-0.25 0,-0.5937 -0.2812,-0.8281 -0.3594,-0.3281 -1.0938,-0.3281 -0.6875,0 -1.0078,0.2343 -0.3203,0.2344 -0.4766,0.8438 l -0.9531,-0.125 q 0.125,-0.6094 0.4219,-0.9844 0.2968,-0.375 0.8594,-0.5703 0.5624,-0.1953 1.2968,-0.1953 0.7344,0 1.1875,0.1719 0.4531,0.1718 0.6641,0.4296 0.2109,0.2579 0.3047,0.6485 0.0469,0.25 0.0469,0.9062 l 0,1.2813 q 0,1.3437 0.0624,1.7031 0.0626,0.3594 0.25,0.6875 l -1.0156,0 q -0.1562,-0.2969 -0.1875,-0.7031 z m -0.0937,-2.1563 q -0.5156,0.2188 -1.5782,0.3594 -0.5937,0.0938 -0.8359,0.1953 -0.2422,0.1016 -0.3828,0.3125 -0.1406,0.211 -0.1406,0.461 0,0.3906 0.2969,0.6484 0.2968,0.2578 0.8593,0.2578 0.5625,0 0.9922,-0.25 0.4297,-0.25 0.6485,-0.6719 0.1406,-0.3281 0.1406,-0.9687 l 0,-0.3438 z m 1.9844,1.1563 0.9531,-0.1563 q 0.0781,0.5782 0.4453,0.8828 0.3672,0.3047 1.0234,0.3047 0.6719,0 0.9922,-0.2656 0.3203,-0.2656 0.3203,-0.6406 0,-0.3281 -0.2812,-0.5156 -0.2031,-0.125 -0.9844,-0.3282 -1.0625,-0.2656 -1.4766,-0.4609 -0.414,-0.1953 -0.625,-0.5391 -0.2109,-0.3437 -0.2109,-0.7656 0,-0.3906 0.1719,-0.7109 0.1719,-0.3203 0.4843,-0.5391 0.2188,-0.1719 0.6094,-0.2812 0.3906,-0.1094 0.8282,-0.1094 0.6718,0 1.1796,0.1875 0.5078,0.1875 0.75,0.5234 0.2422,0.336 0.336,0.8828 l -0.9375,0.125 q -0.0781,-0.4375 -0.3828,-0.6797 -0.3047,-0.2421 -0.8672,-0.2421 -0.6719,0 -0.9531,0.2187 -0.2813,0.2188 -0.2813,0.5156 0,0.1875 0.1094,0.3282 0.125,0.1562 0.375,0.2656 0.1406,0.0469 0.8593,0.25 1.0157,0.2656 1.4219,0.4375 0.4063,0.1719 0.6407,0.5078 0.2343,0.3359 0.2343,0.8359 0,0.4844 -0.2812,0.9063 -0.2813,0.4219 -0.8125,0.6562 -0.5313,0.2344 -1.2032,0.2344 -1.1093,0 -1.6953,-0.4609 -0.5859,-0.461 -0.7421,-1.3672 z m 6,0 0.9531,-0.1563 q 0.0781,0.5782 0.4453,0.8828 0.3672,0.3047 1.0234,0.3047 0.6719,0 0.9922,-0.2656 0.3203,-0.2656 0.3203,-0.6406 0,-0.3281 -0.2812,-0.5156 -0.2031,-0.125 -0.9844,-0.3282 -1.0625,-0.2656 -1.4766,-0.4609 -0.414,-0.1953 -0.625,-0.5391 -0.2109,-0.3437 -0.2109,-0.7656 0,-0.3906 0.1719,-0.7109 0.1719,-0.3203 0.4843,-0.5391 0.2188,-0.1719 0.6094,-0.2812 0.3906,-0.1094 0.8282,-0.1094 0.6718,0 1.1796,0.1875 0.5078,0.1875 0.75,0.5234 0.2422,0.336 0.336,0.8828 l -0.9375,0.125 q -0.0781,-0.4375 -0.3828,-0.6797 -0.3047,-0.2421 -0.8672,-0.2421 -0.6719,0 -0.9531,0.2187 -0.2813,0.2188 -0.2813,0.5156 0,0.1875 0.1094,0.3282 0.125,0.1562 0.375,0.2656 0.1406,0.0469 0.8593,0.25 1.0157,0.2656 1.4219,0.4375 0.4063,0.1719 0.6407,0.5078 0.2343,0.3359 0.2343,0.8359 0,0.4844 -0.2812,0.9063 -0.2813,0.4219 -0.8125,0.6562 -0.5313,0.2344 -1.2032,0.2344 -1.1093,0 -1.6953,-0.4609 -0.5859,-0.461 -0.7421,-1.3672 z m 10.2812,-0.1406 1,0.125 q -0.2344,0.875 -0.875,1.3593 -0.6406,0.4844 -1.625,0.4844 -1.25,0 -1.9844,-0.7656 -0.7344,-0.7656 -0.7344,-2.1563 0,-1.4531 0.7422,-2.2422 0.7422,-0.789 1.9141,-0.789 1.1563,0 1.875,0.7734 0.7187,0.7735 0.7187,2.1953 0,0.0782 0,0.25 l -4.25,0 q 0.0469,0.9375 0.5235,1.4375 0.4765,0.5 1.1953,0.5 0.5312,0 0.9062,-0.2734 0.375,-0.2734 0.5938,-0.8984 z m -3.1719,-1.5625 3.1875,0 q -0.0625,-0.7188 -0.3594,-1.0782 -0.4687,-0.5468 -1.2031,-0.5468 -0.6719,0 -1.125,0.4453 -0.4531,0.4453 -0.5,1.1797 z m 4.8907,1.7031 0.9531,-0.1563 q 0.0781,0.5782 0.4453,0.8828 0.3672,0.3047 1.0234,0.3047 0.6719,0 0.9922,-0.2656 0.3203,-0.2656 0.3203,-0.6406 0,-0.3281 -0.2812,-0.5156 -0.2031,-0.125 -0.9844,-0.3282 -1.0625,-0.2656 -1.4766,-0.4609 -0.414,-0.1953 -0.625,-0.5391 -0.2109,-0.3437 -0.2109,-0.7656 0,-0.3906 0.1719,-0.7109 0.1719,-0.3203 0.4843,-0.5391 0.2188,-0.1719 0.6094,-0.2812 0.3906,-0.1094 0.8282,-0.1094 0.6718,0 1.1796,0.1875 0.5078,0.1875 0.75,0.5234 0.2422,0.336 0.336,0.8828 l -0.9375,0.125 q -0.0781,-0.4375 -0.3828,-0.6797 -0.3047,-0.2421 -0.8672,-0.2421 -0.6719,0 -0.9531,0.2187 -0.2813,0.2188 -0.2813,0.5156 0,0.1875 0.1094,0.3282 0.125,0.1562 0.375,0.2656 0.1406,0.0469 0.8593,0.25 1.0157,0.2656 1.4219,0.4375 0.4063,0.1719 0.6407,0.5078 0.2343,0.3359 0.2343,0.8359 0,0.4844 -0.2812,0.9063 -0.2813,0.4219 -0.8125,0.6562 -0.5313,0.2344 -1.2032,0.2344 -1.1093,0 -1.6953,-0.4609 -0.5859,-0.461 -0.7421,-1.3672 z m 9.3906,-5.0625 0,-1.1094 0.9687,0 0,1.1094 -0.9687,0 z m 0,6.7656 0,-5.7031 0.9687,0 0,5.7031 -0.9687,0 z m 1.9844,0 0,-5.7031 0.875,0 0,0.8125 q 0.625,-0.9375 1.8124,-0.9375 0.5157,0 0.9532,0.1797 0.4375,0.1797 0.6484,0.4843 0.211,0.3047 0.3047,0.711 0.0469,0.2812 0.0469,0.9531 l 0,3.5 -0.9688,0 0,-3.4687 q 0,-0.5938 -0.1094,-0.8829 -0.1093,-0.289 -0.3984,-0.4687 -0.289,-0.1797 -0.6797,-0.1797 -0.6093,0 -1.0625,0.3906 -0.4531,0.3907 -0.4531,1.5 l 0,3.1094 -0.9687,0 z m 6,0 0,-7.875 0.9687,0 0,2.8281 q 0.6875,-0.7812 1.7187,-0.7812 0.625,0 1.0938,0.25 0.4688,0.25 0.6719,0.6875 0.2031,0.4375 0.2031,1.2812 l 0,3.6094 -0.9688,0 0,-3.6094 q 0,-0.7343 -0.3124,-1.0625 -0.3126,-0.3281 -0.8907,-0.3281 -0.4375,0 -0.8125,0.2188 -0.375,0.2187 -0.539,0.6015 -0.1641,0.3828 -0.1641,1.0547 l 0,3.125 -0.9687,0 z m 9.9062,-1.8437 1,0.125 q -0.2344,0.875 -0.875,1.3593 -0.6406,0.4844 -1.625,0.4844 -1.25,0 -1.9844,-0.7656 -0.7344,-0.7656 -0.7344,-2.1563 0,-1.4531 0.7422,-2.2422 0.7422,-0.789 1.9141,-0.789 1.1563,0 1.875,0.7734 0.7187,0.7735 0.7187,2.1953 0,0.0782 0,0.25 l -4.25,0 q 0.0469,0.9375 0.5235,1.4375 0.4765,0.5 1.1953,0.5 0.5312,0 0.9062,-0.2734 0.375,-0.2734 0.5938,-0.8984 z m -3.1719,-1.5625 3.1875,0 q -0.0625,-0.7188 -0.3594,-1.0782 -0.4687,-0.5468 -1.2031,-0.5468 -0.6719,0 -1.125,0.4453 -0.4531,0.4453 -0.5,1.1797 z m 5.2657,3.4062 0,-5.7031 0.8593,0 0,0.8594 q 0.3438,-0.6094 0.625,-0.7969 0.2813,-0.1875 0.6094,-0.1875 0.5,0 1,0.3125 l -0.3281,0.8906 q -0.3594,-0.2031 -0.7188,-0.2031 -0.3125,0 -0.5625,0.1875 -0.25,0.1875 -0.3593,0.5312 -0.1563,0.5157 -0.1563,1.125 l 0,2.9844 -0.9687,0 z m 4.0156,-6.7656 0,-1.1094 0.9687,0 0,1.1094 -0.9687,0 z m 0,6.7656 0,-5.7031 0.9687,0 0,5.7031 -0.9687,0 z m 4.1094,-0.8594 0.125,0.8438 q -0.4063,0.0937 -0.7188,0.0937 -0.5312,0 -0.8203,-0.1718 -0.2891,-0.1719 -0.4063,-0.4375 -0.1172,-0.2657 -0.1172,-1.1407 l 0,-3.2812 -0.7187,0 0,-0.75 0.7187,0 0,-1.4063 0.9532,-0.5937 0,2 0.9844,0 0,0.75 -0.9844,0 0,3.3437 q 0,0.4063 0.0547,0.5235 0.0547,0.1172 0.1718,0.1875 0.1172,0.0703 0.3203,0.0703 0.1719,0 0.4376,-0.0313 z"
     clip-path="url(#clipPath2)"
     id="path3211"
     inkscape:connector-curvature="0"
     style="fill:#000000;stroke:none"
     transform="translate(-81,-60)" />
  <path
     d="m 206.9531,110.4978 0,-4.9531 -0.8437,0 0,-0.75 0.8437,0 0,-0.6094 q 0,-0.5781 0.1094,-0.8594 0.1406,-0.375 0.4922,-0.6093 0.3515,-0.2344 0.9765,-0.2344 0.4063,0 0.9063,0.1094 l -0.1406,0.8437 q -0.3125,-0.0625 -0.5781,-0.0625 -0.4376,0 -0.6172,0.1875 -0.1797,0.1875 -0.1797,0.7031 l 0,0.5313 1.1093,0 0,0.75 -1.1093,0 0,4.9531 -0.9688,0 z m 3.7657,0 0,-5.7031 0.8593,0 0,0.8594 q 0.3438,-0.6094 0.625,-0.7969 0.2813,-0.1875 0.6094,-0.1875 0.5,0 1,0.3125 l -0.3281,0.8906 q -0.3594,-0.2031 -0.7188,-0.2031 -0.3125,0 -0.5625,0.1875 -0.25,0.1875 -0.3593,0.5312 -0.1563,0.5157 -0.1563,1.125 l 0,2.9844 -0.9687,0 z m 3.6406,-2.8594 q 0,-1.5781 0.8906,-2.3437 0.7344,-0.625 1.7969,-0.625 1.1719,0 1.914,0.7656 0.7422,0.7656 0.7422,2.125 0,1.1094 -0.3281,1.7422 -0.3281,0.6328 -0.9609,0.9766 -0.6329,0.3437 -1.3672,0.3437 -1.2031,0 -1.9453,-0.7656 -0.7422,-0.7656 -0.7422,-2.2188 z m 1,0 q 0,1.1094 0.4765,1.6485 0.4766,0.539 1.211,0.539 0.7187,0 1.1953,-0.5468 0.4766,-0.5469 0.4766,-1.6719 0,-1.0469 -0.4844,-1.5938 -0.4844,-0.5468 -1.1875,-0.5468 -0.7344,0 -1.211,0.539 -0.4765,0.5391 -0.4765,1.6328 z m 5.3594,2.8594 0,-5.7031 0.875,0 0,0.7969 q 0.2656,-0.4219 0.7109,-0.6719 0.4453,-0.25 1.0078,-0.25 0.6406,0 1.0469,0.2578 0.4062,0.2578 0.5781,0.7422 0.6719,-1 1.75,-1 0.8594,0 1.3125,0.4687 0.4531,0.4688 0.4531,1.4375 l 0,3.9219 -0.9531,0 0,-3.5937 q 0,-0.5782 -0.0938,-0.836 -0.0937,-0.2578 -0.3437,-0.414 -0.25,-0.1563 -0.5781,-0.1563 -0.6094,0 -1.0078,0.4063 -0.3985,0.4062 -0.3985,1.2812 l 0,3.3125 -0.9687,0 0,-3.7031 q 0,-0.6406 -0.2344,-0.9688 -0.2344,-0.3281 -0.7656,-0.3281 -0.4063,0 -0.7578,0.2188 -0.3516,0.2187 -0.5078,0.6328 -0.1563,0.414 -0.1563,1.1953 l 0,2.9531 -0.9687,0 z m 10.7812,-2.5312 0.9844,-0.0782 q 0.0625,0.5782 0.3203,0.961 0.2578,0.3828 0.7891,0.6172 0.5312,0.2343 1.2031,0.2343 0.6093,0 1.0625,-0.1797 0.4531,-0.1796 0.6797,-0.4843 0.2265,-0.3047 0.2265,-0.6797 0,-0.375 -0.2187,-0.6485 -0.2188,-0.2734 -0.7188,-0.4609 -0.3125,-0.125 -1.3984,-0.3828 -1.0859,-0.2578 -1.5235,-0.4922 -0.5624,-0.2969 -0.8359,-0.7344 -0.2734,-0.4375 -0.2734,-0.9843 0,-0.5938 0.3359,-1.1094 0.336,-0.5156 0.9844,-0.7891 0.6484,-0.2734 1.4453,-0.2734 0.875,0 1.5469,0.289 0.6718,0.2891 1.0312,0.836 0.3594,0.5469 0.3906,1.2344 l -1,0.0781 q -0.0781,-0.75 -0.5468,-1.1328 -0.4688,-0.3828 -1.375,-0.3828 -0.9375,0 -1.375,0.3515 -0.4375,0.3516 -0.4375,0.836 0,0.4218 0.3125,0.7031 0.2968,0.2656 1.5703,0.5547 1.2734,0.289 1.7422,0.5078 0.6875,0.3125 1.0156,0.7969 0.3281,0.4843 0.3281,1.125 0,0.625 -0.3594,1.1796 -0.3593,0.5547 -1.039,0.8672 -0.6797,0.3125 -1.5234,0.3125 -1.0626,0 -1.7813,-0.3125 -0.7187,-0.3125 -1.1328,-0.9375 -0.4141,-0.625 -0.4297,-1.4218 z m 7.3125,2.5312 0,-7.875 2.9531,0 q 0.8906,0 1.4375,0.2422 0.5469,0.2422 0.8594,0.7344 0.3125,0.4922 0.3125,1.039 0,0.5 -0.2734,0.9453 -0.2735,0.4454 -0.836,0.7266 0.7188,0.2031 1.1016,0.7109 0.3828,0.5079 0.3828,1.1954 0,0.5468 -0.2344,1.0234 -0.2344,0.4766 -0.5781,0.7344 -0.3437,0.2578 -0.8594,0.3906 -0.5156,0.1328 -1.2656,0.1328 l -3,0 z m 1.0313,-4.5625 1.7031,0 q 0.7031,0 1,-0.0937 0.3906,-0.125 0.5937,-0.3985 0.2032,-0.2734 0.2032,-0.6797 0,-0.3906 -0.1876,-0.6875 -0.1874,-0.2968 -0.539,-0.4062 -0.3516,-0.1094 -1.1953,-0.1094 l -1.5781,0 0,2.375 z m 0,3.6406 1.9687,0 q 0.5,0 0.7031,-0.0468 0.3594,-0.0625 0.6016,-0.211 0.2422,-0.1484 0.3984,-0.4375 0.1563,-0.289 0.1563,-0.664 0,-0.4375 -0.2266,-0.7657 -0.2265,-0.3281 -0.625,-0.4609 -0.3984,-0.1328 -1.1484,-0.1328 l -1.8281,0 0,2.7187 z m 9.6093,0.2188 q -0.5469,0.4531 -1.039,0.6406 -0.4922,0.1875 -1.0703,0.1875 -0.9376,0 -1.4454,-0.4609 -0.5078,-0.461 -0.5078,-1.1641 0,-0.4219 0.1953,-0.7656 0.1953,-0.3438 0.5,-0.5547 0.3047,-0.2109 0.6953,-0.3203 0.2813,-0.0781 0.8594,-0.1406 1.1719,-0.1407 1.7188,-0.3438 0.0156,-0.1875 0.0156,-0.25 0,-0.5937 -0.2812,-0.8281 -0.3594,-0.3281 -1.0938,-0.3281 -0.6875,0 -1.0078,0.2343 -0.3203,0.2344 -0.4766,0.8438 l -0.9531,-0.125 q 0.125,-0.6094 0.4219,-0.9844 0.2968,-0.375 0.8594,-0.5703 0.5624,-0.1953 1.2968,-0.1953 0.7344,0 1.1875,0.1719 0.4531,0.1718 0.6641,0.4296 0.2109,0.2579 0.3047,0.6485 0.0469,0.25 0.0469,0.9062 l 0,1.2813 q 0,1.3437 0.0624,1.7031 0.0626,0.3594 0.25,0.6875 l -1.0156,0 q -0.1562,-0.2969 -0.1875,-0.7031 z m -0.0937,-2.1563 q -0.5156,0.2188 -1.5782,0.3594 -0.5937,0.0938 -0.8359,0.1953 -0.2422,0.1016 -0.3828,0.3125 -0.1406,0.211 -0.1406,0.461 0,0.3906 0.2969,0.6484 0.2968,0.2578 0.8593,0.2578 0.5625,0 0.9922,-0.25 0.4297,-0.25 0.6485,-0.6719 0.1406,-0.3281 0.1406,-0.9687 l 0,-0.3438 z m 1.9844,1.1563 0.9531,-0.1563 q 0.0781,0.5782 0.4453,0.8828 0.3672,0.3047 1.0234,0.3047 0.6719,0 0.9922,-0.2656 0.3203,-0.2656 0.3203,-0.6406 0,-0.3281 -0.2812,-0.5156 -0.2031,-0.125 -0.9844,-0.3282 -1.0625,-0.2656 -1.4766,-0.4609 -0.414,-0.1953 -0.625,-0.5391 -0.2109,-0.3437 -0.2109,-0.7656 0,-0.3906 0.1719,-0.7109 0.1719,-0.3203 0.4843,-0.5391 0.2188,-0.1719 0.6094,-0.2812 0.3906,-0.1094 0.8282,-0.1094 0.6718,0 1.1796,0.1875 0.5078,0.1875 0.75,0.5234 0.2422,0.336 0.336,0.8828 l -0.9375,0.125 q -0.0781,-0.4375 -0.3828,-0.6797 -0.3047,-0.2421 -0.8672,-0.2421 -0.6719,0 -0.9531,0.2187 -0.2813,0.2188 -0.2813,0.5156 0,0.1875 0.1094,0.3282 0.125,0.1562 0.375,0.2656 0.1406,0.0469 0.8593,0.25 1.0157,0.2656 1.4219,0.4375 0.4063,0.1719 0.6407,0.5078 0.2343,0.3359 0.2343,0.8359 0,0.4844 -0.2812,0.9063 -0.2813,0.4219 -0.8125,0.6562 -0.5313,0.2344 -1.2032,0.2344 -1.1093,0 -1.6953,-0.4609 -0.5859,-0.461 -0.7421,-1.3672 z m 10.2812,-0.1406 1,0.125 q -0.2344,0.875 -0.875,1.3593 -0.6406,0.4844 -1.625,0.4844 -1.25,0 -1.9844,-0.7656 -0.7344,-0.7656 -0.7344,-2.1563 0,-1.4531 0.7422,-2.2422 0.7422,-0.789 1.9141,-0.789 1.1563,0 1.875,0.7734 0.7187,0.7735 0.7187,2.1953 0,0.0782 0,0.25 l -4.25,0 q 0.0469,0.9375 0.5235,1.4375 0.4765,0.5 1.1953,0.5 0.5312,0 0.9062,-0.2734 0.375,-0.2734 0.5938,-0.8984 z m -3.1719,-1.5625 3.1875,0 q -0.0625,-0.7188 -0.3594,-1.0782 -0.4687,-0.5468 -1.2031,-0.5468 -0.6719,0 -1.125,0.4453 -0.4531,0.4453 -0.5,1.1797 z m 5.5469,3.4062 0,-1.0937 1.0938,0 0,1.0937 -1.0938,0 z"
     clip-path="url(#clipPath2)"
     id="path3213"
     inkscape:connector-curvature="0"
     style="fill:#000000;stroke:none"
     transform="translate(-81,-60)" />
  <polygon
     clip-path="url(#clipPath2)"
     points="389,189 394,191 401,189 394,187 "
     id="polygon3215"
     style="fill:none;stroke:#424242;stroke-linecap:butt;stroke-linejoin:round"
     transform="translate(-81,-60)" />
  <path
     d="m 462,224 -28,0 0,-35 -33,0"
     clip-path="url(#clipPath2)"
     id="path3217"
     inkscape:connector-curvature="0"
     style="fill:none;stroke:#424242;stroke-linecap:butt;stroke-linejoin:round"
     transform="translate(-81,-60)" />
  <polygon
     clip-path="url(#clipPath2)"
     points="389,189 394,191 401,189 394,187 "
     id="polygon3219"
     style="fill:none;stroke:#424242;stroke-linecap:butt;stroke-linejoin:round"
     transform="translate(-81,-60)" />
  <path
     d="m 462,147 -28,0 0,42 -33,0"
     clip-path="url(#clipPath2)"
     id="path3221"
     inkscape:connector-curvature="0"
     style="fill:none;stroke:#424242;stroke-linecap:butt;stroke-linejoin:round"
     transform="translate(-81,-60)" />
  <path
     d="m 243,161 7,-46"
     clip-path="url(#clipPath2)"
     id="path3223"
     inkscape:connector-curvature="0"
     style="fill:none;stroke:#424242;stroke-linecap:butt;stroke-linejoin:round;stroke-dasharray:10"
     transform="translate(-81,-60)" />
  <text
     xml:space="preserve"
     style="font-size:14.9333334px;font-style:normal;font-weight:normal;line-height:125%;letter-spacing:0px;word-spacing:0px;fill:#000000;fill-opacity:1;stroke:none;font-family:Sans"
     x="19.328382"
     y="132.60397"
     id="text3343"
     sodipodi:linespacing="125%"><tspan
       sodipodi:role="line"
       id="tspan3345"
       x="19.328382"
       y="132.60397"
       style="font-size:11.73333359px">metaid</tspan></text>
</svg>
